if (_typeface_js && _typeface_js.loadFace) _typeface_js.loadFace({"glyphs":{"0":{"ha":638,"x_min":35,"x_max":603,"o":"m 118 922 q 209 981 157 960 q 319 1003 261 1003 q 429 981 378 1003 q 519 922 481 960 q 581 835 558 885 q 603 728 603 785 l 603 260 q 581 153 603 203 q 519 67 558 103 q 429 8 481 29 q 319 -14 378 -14 q 209 8 261 -14 q 118 67 157 29 q 57 153 79 103 q 35 260 35 203 l 35 728 q 57 835 35 785 q 118 922 79 885 m 235 728 l 235 260 q 259 203 235 226 q 319 181 283 181 q 378 203 354 181 q 401 260 401 226 l 401 728 q 378 785 401 761 q 319 808 354 808 q 259 785 283 808 q 235 728 235 761 z "},"1":{"ha":357,"x_min":7,"x_max":301,"o":"m 7 940 l 118 986 l 301 986 l 301 0 l 104 0 l 104 776 l 7 776 l 7 940 z "},"2":{"ha":604,"x_min":21,"x_max":588,"o":"m 583 715 q 519 521 583 604 q 376 329 454 438 l 278 199 l 588 199 l 588 0 l 31 0 l 31 164 l 253 476 q 338 603 297 542 q 379 713 379 664 q 358 779 379 757 q 301 801 338 801 q 243 778 267 801 q 219 721 219 756 l 219 703 l 21 703 l 21 721 q 101 917 21 835 q 301 1000 182 1000 q 501 921 419 1000 q 583 715 583 842 z "},"3":{"ha":638,"x_min":28,"x_max":610,"o":"m 606 704 q 577 584 606 635 q 507 513 549 533 q 583 428 556 485 q 610 282 610 372 q 542 85 610 175 q 335 -12 475 -4 l 299 -12 q 106 78 185 -4 q 28 290 28 161 l 232 290 q 265 206 236 229 q 324 182 293 182 q 392 204 368 182 q 417 286 417 226 q 378 383 417 353 q 268 413 339 413 l 268 593 q 370 620 339 593 q 401 706 401 647 q 381 777 401 750 q 319 804 361 804 q 258 783 281 804 q 231 725 236 761 l 32 725 q 113 920 32 840 q 319 1000 193 1000 q 525 916 444 1000 q 606 704 606 832 z "},"4":{"ha":633,"x_min":7,"x_max":619,"o":"m 311 986 l 540 986 l 540 390 l 619 390 l 619 196 l 540 196 l 540 0 l 343 0 l 343 196 l 7 196 l 7 378 l 8 379 l 311 986 m 343 706 l 192 390 l 343 390 l 343 706 z "},"5":{"ha":650,"x_min":49,"x_max":615,"o":"m 242 628 q 292 657 257 647 q 356 667 328 667 q 537 596 458 667 q 615 389 615 525 l 615 263 q 532 65 615 144 q 333 -14 449 -14 q 133 66 217 -14 q 49 263 49 146 l 249 263 q 273 205 249 228 q 333 182 297 182 q 392 208 368 182 q 417 269 417 235 l 417 383 q 392 444 417 418 q 333 469 368 469 q 273 447 297 469 q 249 389 249 424 l 49 389 l 49 986 l 582 986 l 582 782 l 242 782 l 242 628 z "},"6":{"ha":638,"x_min":35,"x_max":603,"o":"m 35 725 q 119 919 35 839 q 319 1000 203 1000 q 519 919 436 1000 q 603 725 603 839 l 401 725 q 378 781 401 758 q 319 804 354 804 q 260 781 283 804 q 236 725 236 758 l 236 643 q 281 660 256 654 q 332 665 307 665 q 519 588 442 665 q 601 401 596 511 l 603 401 l 603 263 q 519 68 603 149 q 319 -12 436 -12 q 119 68 203 -12 q 35 263 35 149 l 35 725 m 401 263 l 401 382 q 378 442 401 418 q 319 465 354 465 q 264 448 286 465 q 236 400 242 431 l 236 263 q 260 206 236 229 q 319 183 283 183 q 378 206 354 183 q 401 263 401 229 z "},"7":{"ha":563,"x_min":7,"x_max":556,"o":"m 81 0 l 328 792 l 7 792 l 7 986 l 556 986 l 556 851 l 289 0 l 81 0 z "},"8":{"ha":636,"x_min":35,"x_max":601,"o":"m 35 726 q 113 919 35 839 q 318 1000 190 1000 q 524 919 446 1000 q 601 726 601 839 l 601 694 q 578 588 601 639 q 518 511 554 538 q 578 438 556 483 q 601 338 601 393 l 601 268 q 517 68 601 149 q 318 -12 433 -12 q 120 69 206 -12 q 35 269 35 151 l 35 339 q 63 439 35 393 q 129 511 92 485 q 64 588 93 536 q 35 694 35 639 l 35 726 m 401 686 l 401 726 q 378 785 401 760 q 318 810 354 810 q 259 785 283 810 q 235 726 235 760 l 235 686 q 259 627 235 653 q 318 601 283 601 q 378 627 354 601 q 401 686 401 653 m 235 346 l 235 261 q 259 205 235 228 q 318 182 283 182 q 378 205 354 182 q 401 261 401 228 l 401 346 q 378 403 401 379 q 318 426 354 426 q 259 403 283 426 q 235 346 235 379 z "},"9":{"ha":638,"x_min":35,"x_max":603,"o":"m 236 725 l 236 606 q 260 546 236 569 q 318 522 283 522 q 374 540 351 522 q 401 588 396 557 l 401 725 q 378 781 401 758 q 318 804 354 804 q 260 781 283 804 q 236 725 236 758 m 603 263 q 519 68 603 149 q 318 -12 435 -12 q 118 68 201 -12 q 35 263 35 149 l 236 263 q 260 206 236 229 q 318 183 283 183 q 378 206 354 183 q 401 263 401 229 l 401 344 q 356 328 382 333 q 306 322 331 322 q 117 397 199 322 q 36 586 36 471 l 35 586 l 35 725 q 118 919 35 839 q 318 1000 201 1000 q 519 919 435 1000 q 603 725 603 839 l 603 263 z "}," ":{"ha":194,"x_min":0,"x_max":0,"o":""},"A":{"ha":649,"x_min":0,"x_max":649,"o":"m 324 650 l 269 344 l 379 344 l 324 650 m 0 0 l 219 986 l 426 986 l 649 0 l 442 0 l 411 168 l 238 168 l 207 0 l 0 0 z "},"a":{"ha":649,"x_min":0,"x_max":649,"o":"m 324 650 l 269 344 l 379 344 l 324 650 m 0 0 l 219 986 l 426 986 l 649 0 l 442 0 l 411 168 l 238 168 l 207 0 l 0 0 z "},"Á":{"ha":649,"x_min":0,"x_max":649,"o":"m 324 650 l 269 344 l 379 344 l 324 650 m 0 0 l 219 986 l 426 986 l 649 0 l 442 0 l 411 168 l 238 168 l 207 0 l 0 0 m 535 1169 l 413 1040 l 218 1040 l 269 1169 l 535 1169 z "},"á":{"ha":649,"x_min":0,"x_max":649,"o":"m 324 650 l 269 344 l 379 344 l 324 650 m 0 0 l 219 986 l 426 986 l 649 0 l 442 0 l 411 168 l 238 168 l 207 0 l 0 0 m 535 1169 l 413 1040 l 218 1040 l 269 1169 l 535 1169 z "},"Ă":{"ha":649,"x_min":0,"x_max":649,"o":"m 324 650 l 269 344 l 379 344 l 324 650 m 0 0 l 219 986 l 426 986 l 649 0 l 442 0 l 411 168 l 238 168 l 207 0 l 0 0 m 376 1174 l 504 1174 q 464 1061 504 1104 q 343 1018 424 1018 l 300 1018 q 177 1061 221 1018 q 133 1174 133 1104 l 260 1174 q 269 1142 260 1154 q 300 1131 279 1131 l 339 1131 q 367 1144 358 1131 q 376 1174 376 1157 z "},"ă":{"ha":649,"x_min":0,"x_max":649,"o":"m 324 650 l 269 344 l 379 344 l 324 650 m 0 0 l 219 986 l 426 986 l 649 0 l 442 0 l 411 168 l 238 168 l 207 0 l 0 0 m 376 1174 l 504 1174 q 464 1061 504 1104 q 343 1018 424 1018 l 300 1018 q 177 1061 221 1018 q 133 1174 133 1104 l 260 1174 q 269 1142 260 1154 q 300 1131 279 1131 l 339 1131 q 367 1144 358 1131 q 376 1174 376 1157 z "},"Â":{"ha":649,"x_min":0,"x_max":649,"o":"m 324 650 l 269 344 l 379 344 l 324 650 m 0 0 l 219 986 l 426 986 l 649 0 l 442 0 l 411 168 l 238 168 l 207 0 l 0 0 m 272 1028 l 125 1028 l 253 1157 l 390 1157 l 531 1028 l 379 1028 l 324 1079 l 272 1028 z "},"â":{"ha":649,"x_min":0,"x_max":649,"o":"m 324 650 l 269 344 l 379 344 l 324 650 m 0 0 l 219 986 l 426 986 l 649 0 l 442 0 l 411 168 l 238 168 l 207 0 l 0 0 m 272 1028 l 125 1028 l 253 1157 l 390 1157 l 531 1028 l 379 1028 l 324 1079 l 272 1028 z "},"Ä":{"ha":649,"x_min":0,"x_max":649,"o":"m 324 650 l 269 344 l 379 344 l 324 650 m 0 0 l 219 986 l 426 986 l 649 0 l 442 0 l 411 168 l 238 168 l 207 0 l 0 0 m 353 1160 l 542 1160 l 542 1029 l 353 1029 l 353 1160 m 97 1160 l 286 1160 l 286 1029 l 97 1029 l 97 1160 z "},"ä":{"ha":649,"x_min":0,"x_max":649,"o":"m 324 650 l 269 344 l 379 344 l 324 650 m 0 0 l 219 986 l 426 986 l 649 0 l 442 0 l 411 168 l 238 168 l 207 0 l 0 0 m 353 1160 l 542 1160 l 542 1029 l 353 1029 l 353 1160 m 97 1160 l 286 1160 l 286 1029 l 97 1029 l 97 1160 z "},"À":{"ha":649,"x_min":0,"x_max":649,"o":"m 324 650 l 269 344 l 379 344 l 324 650 m 0 0 l 219 986 l 426 986 l 649 0 l 442 0 l 411 168 l 238 168 l 207 0 l 0 0 m 244 1028 l 122 1157 l 388 1157 l 439 1028 l 244 1028 z "},"à":{"ha":635,"x_min":0,"x_max":649,"o":"m 324 650 l 269 344 l 379 344 l 324 650 m 0 0 l 219 986 l 426 986 l 649 0 l 442 0 l 411 168 l 238 168 l 207 0 l 0 0 m 244 1028 l 122 1157 l 388 1157 l 439 1028 l 244 1028 z "},"Ā":{"ha":649,"x_min":0,"x_max":649,"o":"m 324 650 l 269 344 l 379 344 l 324 650 m 0 0 l 219 986 l 426 986 l 649 0 l 442 0 l 411 168 l 238 168 l 207 0 l 0 0 m 74 1164 l 556 1164 l 556 1040 l 74 1040 l 74 1164 z "},"ā":{"ha":649,"x_min":0,"x_max":649,"o":"m 324 650 l 269 344 l 379 344 l 324 650 m 0 0 l 219 986 l 426 986 l 649 0 l 442 0 l 411 168 l 238 168 l 207 0 l 0 0 m 74 1164 l 556 1164 l 556 1040 l 74 1040 l 74 1164 z "},"Ą":{"ha":649,"x_min":0,"x_max":675,"o":"m 501 -233 q 391 -185 425 -233 q 371 -74 357 -136 q 399 62 386 -1 q 413 125 413 125 l 421 118 l 411 168 l 238 168 l 207 0 l 0 0 l 219 986 l 426 986 l 649 0 l 556 0 l 539 -65 l 640 -65 l 675 -233 l 501 -233 m 324 650 l 269 344 l 379 344 l 324 650 z "},"ą":{"ha":668,"x_min":0,"x_max":675,"o":"m 501 -233 q 391 -185 425 -233 q 371 -74 357 -136 q 399 62 386 -1 q 413 125 413 125 l 421 118 l 411 168 l 238 168 l 207 0 l 0 0 l 219 986 l 426 986 l 649 0 l 556 0 l 539 -65 l 640 -65 l 675 -233 l 501 -233 m 324 650 l 269 344 l 379 344 l 324 650 z "},"Å":{"ha":649,"x_min":0,"x_max":649,"o":"m 324 650 l 269 344 l 379 344 l 324 650 m 0 0 l 219 986 l 426 986 l 649 0 l 442 0 l 411 168 l 238 168 l 207 0 l 0 0 m 356 893 l 289 893 q 188 929 224 893 q 151 1032 151 965 q 187 1138 151 1099 q 290 1176 222 1176 l 356 1176 q 453 1140 418 1176 q 488 1032 488 1103 q 453 929 488 965 q 356 893 418 893 m 354 1067 l 288 1067 q 263 1057 271 1067 q 256 1032 256 1047 q 263 1008 256 1018 q 286 999 269 999 l 354 999 q 376 1008 368 999 q 383 1032 383 1017 q 376 1058 383 1049 q 354 1067 369 1067 z "},"å":{"ha":649,"x_min":0,"x_max":649,"o":"m 324 650 l 269 344 l 379 344 l 324 650 m 0 0 l 219 986 l 426 986 l 649 0 l 442 0 l 411 168 l 238 168 l 207 0 l 0 0 m 356 893 l 289 893 q 188 929 224 893 q 151 1032 151 965 q 187 1138 151 1099 q 290 1176 222 1176 l 356 1176 q 453 1140 418 1176 q 488 1032 488 1103 q 453 929 488 965 q 356 893 418 893 m 354 1067 l 288 1067 q 263 1057 271 1067 q 256 1032 256 1047 q 263 1008 256 1018 q 286 999 269 999 l 354 999 q 376 1008 368 999 q 383 1032 383 1017 q 376 1058 383 1049 q 354 1067 369 1067 z "},"Ǻ":{"ha":649,"x_min":0,"x_max":649,"o":"m 324 650 l 269 344 l 379 344 l 324 650 m 0 0 l 219 986 l 426 986 l 649 0 l 442 0 l 411 168 l 238 168 l 207 0 l 0 0 m 356 893 l 289 893 q 188 929 224 893 q 151 1032 151 965 q 187 1138 151 1099 q 290 1176 222 1176 l 356 1176 q 453 1140 418 1176 q 488 1032 488 1103 q 453 929 488 965 q 356 893 418 893 m 354 1067 l 288 1067 q 263 1057 271 1067 q 256 1032 256 1047 q 263 1008 256 1018 q 286 999 269 999 l 354 999 q 376 1008 368 999 q 383 1032 383 1017 q 376 1058 383 1049 q 354 1067 369 1067 m 525 1326 l 403 1197 l 208 1197 l 260 1326 l 525 1326 z "},"ǻ":{"ha":649,"x_min":0,"x_max":649,"o":"m 324 650 l 269 344 l 379 344 l 324 650 m 0 0 l 219 986 l 426 986 l 649 0 l 442 0 l 411 168 l 238 168 l 207 0 l 0 0 m 356 893 l 289 893 q 188 929 224 893 q 151 1032 151 965 q 187 1138 151 1099 q 290 1176 222 1176 l 356 1176 q 453 1140 418 1176 q 488 1032 488 1103 q 453 929 488 965 q 356 893 418 893 m 354 1067 l 288 1067 q 263 1057 271 1067 q 256 1032 256 1047 q 263 1008 256 1018 q 286 999 269 999 l 354 999 q 376 1008 368 999 q 383 1032 383 1017 q 376 1058 383 1049 q 354 1067 369 1067 m 525 1326 l 403 1197 l 208 1197 l 260 1326 l 525 1326 z "},"Ã":{"ha":649,"x_min":0,"x_max":649,"o":"m 324 650 l 269 344 l 379 344 l 324 650 m 0 0 l 219 986 l 426 986 l 649 0 l 442 0 l 411 168 l 238 168 l 207 0 l 0 0 m 258 1017 q 155 1060 200 1017 q 110 1165 110 1103 l 233 1165 q 247 1135 236 1144 q 275 1126 257 1126 q 333 1148 299 1126 q 406 1169 367 1169 q 501 1127 461 1169 q 542 1022 542 1085 l 403 1022 q 397 1046 403 1038 q 375 1054 390 1054 q 327 1035 361 1054 q 258 1017 293 1017 z "},"ã":{"ha":649,"x_min":0,"x_max":649,"o":"m 324 650 l 269 344 l 379 344 l 324 650 m 0 0 l 219 986 l 426 986 l 649 0 l 442 0 l 411 168 l 238 168 l 207 0 l 0 0 m 258 1017 q 155 1060 200 1017 q 110 1165 110 1103 l 233 1165 q 247 1135 236 1144 q 275 1126 257 1126 q 333 1148 299 1126 q 406 1169 367 1169 q 501 1127 461 1169 q 542 1022 542 1085 l 403 1022 q 397 1046 403 1038 q 375 1054 390 1054 q 327 1035 361 1054 q 258 1017 293 1017 z "},"Æ":{"ha":985,"x_min":-35,"x_max":964,"o":"m 436 781 l 307 406 l 454 406 l 454 783 l 436 781 m 178 0 l -35 0 l 314 986 l 964 986 l 964 794 l 653 794 l 653 592 l 872 592 l 872 401 l 653 401 l 653 190 l 964 190 l 964 0 l 454 0 l 454 207 l 250 207 l 178 0 z "},"æ":{"ha":999,"x_min":-35,"x_max":964,"o":"m 436 781 l 307 406 l 454 406 l 454 783 l 436 781 m 178 0 l -35 0 l 314 986 l 964 986 l 964 794 l 653 794 l 653 592 l 872 592 l 872 401 l 653 401 l 653 190 l 964 190 l 964 0 l 454 0 l 454 207 l 250 207 l 178 0 z "},"Ǽ":{"ha":985,"x_min":-35,"x_max":964,"o":"m 436 781 l 307 406 l 454 406 l 454 783 l 436 781 m 178 0 l -35 0 l 314 986 l 964 986 l 964 794 l 653 794 l 653 592 l 872 592 l 872 401 l 653 401 l 653 190 l 964 190 l 964 0 l 454 0 l 454 207 l 250 207 l 178 0 m 732 1158 l 610 1029 l 415 1029 l 467 1158 l 732 1158 z "},"ǽ":{"ha":985,"x_min":-35,"x_max":964,"o":"m 436 781 l 307 406 l 454 406 l 454 783 l 436 781 m 178 0 l -35 0 l 314 986 l 964 986 l 964 794 l 653 794 l 653 592 l 872 592 l 872 401 l 653 401 l 653 190 l 964 190 l 964 0 l 454 0 l 454 207 l 250 207 l 178 0 m 732 1158 l 610 1029 l 415 1029 l 467 1158 l 732 1158 z "},"B":{"ha":642,"x_min":49,"x_max":628,"o":"m 593 699 q 569 586 593 632 q 517 519 546 540 q 595 431 563 492 q 628 294 628 369 q 552 76 628 153 q 328 0 476 0 l 49 0 l 49 986 l 303 986 q 516 903 439 986 q 593 699 593 821 m 233 599 l 296 599 q 378 620 350 599 q 407 694 407 642 q 376 769 407 742 q 297 794 346 796 l 233 794 l 233 599 m 233 414 l 233 193 l 328 193 q 400 223 371 193 q 429 301 429 253 q 401 383 429 353 q 322 414 374 414 l 233 414 z "},"b":{"ha":635,"x_min":42,"x_max":621,"o":"m 586 699 q 563 586 586 632 q 510 519 539 540 q 588 431 556 492 q 621 294 621 369 q 545 76 621 153 q 321 0 469 0 l 42 0 l 42 986 l 296 986 q 509 903 432 986 q 586 699 586 821 m 226 599 l 289 599 q 372 620 343 599 q 400 694 400 642 q 369 769 400 742 q 290 794 339 796 l 226 794 l 226 599 m 226 414 l 226 193 l 321 193 q 393 223 364 193 q 422 301 422 253 q 394 383 422 353 q 315 414 367 414 l 226 414 z "},"C":{"ha":640,"x_min":42,"x_max":613,"o":"m 42 726 q 126 922 42 840 q 328 1003 211 1003 q 528 922 444 1003 q 613 726 613 840 l 613 665 l 406 665 l 406 726 q 383 779 406 758 q 328 800 360 800 q 272 779 296 800 q 249 726 249 758 l 249 263 q 272 209 249 231 q 328 188 296 188 q 383 209 360 188 q 406 304 406 231 l 406 324 l 613 324 l 613 304 q 528 67 613 149 q 328 -14 444 -14 q 126 67 211 -14 q 42 263 42 149 l 42 726 z "},"c":{"ha":640,"x_min":42,"x_max":613,"o":"m 42 726 q 126 922 42 840 q 328 1003 211 1003 q 528 922 444 1003 q 613 726 613 840 l 613 665 l 406 665 l 406 726 q 383 779 406 758 q 328 800 360 800 q 272 779 296 800 q 249 726 249 758 l 249 263 q 272 209 249 231 q 328 188 296 188 q 383 209 360 188 q 406 304 406 231 l 406 324 l 613 324 l 613 304 q 528 67 613 149 q 328 -14 444 -14 q 126 67 211 -14 q 42 263 42 149 l 42 726 z "},"Ć":{"ha":640,"x_min":42,"x_max":613,"o":"m 42 726 q 126 922 42 840 q 328 1003 211 1003 q 528 922 444 1003 q 613 726 613 840 l 613 665 l 406 665 l 406 726 q 383 779 406 758 q 328 800 360 800 q 272 779 296 800 q 249 726 249 758 l 249 263 q 272 209 249 231 q 328 188 296 188 q 383 209 360 188 q 406 304 406 231 l 406 324 l 613 324 l 613 304 q 528 67 613 149 q 328 -14 444 -14 q 126 67 211 -14 q 42 263 42 149 l 42 726 m 529 1171 l 407 1042 l 213 1042 l 264 1171 l 529 1171 z "},"ć":{"ha":640,"x_min":42,"x_max":613,"o":"m 42 726 q 126 922 42 840 q 328 1003 211 1003 q 528 922 444 1003 q 613 726 613 840 l 613 665 l 406 665 l 406 726 q 383 779 406 758 q 328 800 360 800 q 272 779 296 800 q 249 726 249 758 l 249 263 q 272 209 249 231 q 328 188 296 188 q 383 209 360 188 q 406 304 406 231 l 406 324 l 613 324 l 613 304 q 528 67 613 149 q 328 -14 444 -14 q 126 67 211 -14 q 42 263 42 149 l 42 726 m 529 1171 l 407 1042 l 213 1042 l 264 1171 l 529 1171 z "},"Č":{"ha":640,"x_min":42,"x_max":613,"o":"m 42 726 q 126 922 42 840 q 328 1003 211 1003 q 528 922 444 1003 q 613 726 613 840 l 613 665 l 406 665 l 406 726 q 383 779 406 758 q 328 800 360 800 q 272 779 296 800 q 249 726 249 758 l 249 263 q 272 209 249 231 q 328 188 296 188 q 383 209 360 188 q 406 304 406 231 l 406 324 l 613 324 l 613 304 q 528 67 613 149 q 328 -14 444 -14 q 126 67 211 -14 q 42 263 42 149 l 42 726 m 382 1192 l 529 1192 l 401 1063 l 264 1063 l 124 1192 l 275 1192 l 331 1140 l 382 1192 z "},"č":{"ha":640,"x_min":42,"x_max":613,"o":"m 42 726 q 126 922 42 840 q 328 1003 211 1003 q 528 922 444 1003 q 613 726 613 840 l 613 665 l 406 665 l 406 726 q 383 779 406 758 q 328 800 360 800 q 272 779 296 800 q 249 726 249 758 l 249 263 q 272 209 249 231 q 328 188 296 188 q 383 209 360 188 q 406 304 406 231 l 406 324 l 613 324 l 613 304 q 528 67 613 149 q 328 -14 444 -14 q 126 67 211 -14 q 42 263 42 149 l 42 726 m 382 1192 l 529 1192 l 401 1063 l 264 1063 l 124 1192 l 275 1192 l 331 1140 l 382 1192 z "},"Ç":{"ha":640,"x_min":42,"x_max":613,"o":"m 42 726 q 126 922 42 840 q 328 1003 211 1003 q 528 922 444 1003 q 613 726 613 840 l 613 665 l 406 665 l 406 726 q 383 779 406 758 q 328 800 360 800 q 272 779 296 800 q 249 726 249 758 l 249 263 q 272 209 249 231 q 328 188 296 188 q 383 209 360 188 q 406 304 406 231 l 406 324 l 613 324 l 613 304 q 528 67 613 149 q 328 -14 444 -14 q 126 67 211 -14 q 42 263 42 149 l 42 726 m 408 13 l 390 -111 l 183 -111 l 232 13 l 408 13 z "},"ç":{"ha":640,"x_min":42,"x_max":613,"o":"m 42 726 q 126 922 42 840 q 328 1003 211 1003 q 528 922 444 1003 q 613 726 613 840 l 613 665 l 406 665 l 406 726 q 383 779 406 758 q 328 800 360 800 q 272 779 296 800 q 249 726 249 758 l 249 263 q 272 209 249 231 q 328 188 296 188 q 383 209 360 188 q 406 304 406 231 l 406 324 l 613 324 l 613 304 q 528 67 613 149 q 328 -14 444 -14 q 126 67 211 -14 q 42 263 42 149 l 42 726 m 408 13 l 390 -111 l 183 -111 l 232 13 l 408 13 z "},"Ċ":{"ha":640,"x_min":42,"x_max":613,"o":"m 42 726 q 126 922 42 840 q 328 1003 211 1003 q 528 922 444 1003 q 613 726 613 840 l 613 665 l 406 665 l 406 726 q 383 779 406 758 q 328 800 360 800 q 272 779 296 800 q 249 726 249 758 l 249 263 q 272 209 249 231 q 328 188 296 188 q 383 209 360 188 q 406 304 406 231 l 406 324 l 613 324 l 613 304 q 528 67 613 149 q 328 -14 444 -14 q 126 67 211 -14 q 42 263 42 149 l 42 726 m 218 1192 l 426 1192 l 426 1061 l 218 1061 l 218 1192 z "},"ċ":{"ha":640,"x_min":42,"x_max":613,"o":"m 42 726 q 126 922 42 840 q 328 1003 211 1003 q 528 922 444 1003 q 613 726 613 840 l 613 665 l 406 665 l 406 726 q 383 779 406 758 q 328 800 360 800 q 272 779 296 800 q 249 726 249 758 l 249 263 q 272 209 249 231 q 328 188 296 188 q 383 209 360 188 q 406 304 406 231 l 406 324 l 613 324 l 613 304 q 528 67 613 149 q 328 -14 444 -14 q 126 67 211 -14 q 42 263 42 149 l 42 726 m 218 1192 l 426 1192 l 426 1061 l 218 1061 l 218 1192 z "},"D":{"ha":668,"x_min":56,"x_max":633,"o":"m 56 986 l 351 986 q 461 965 410 986 q 551 907 513 943 q 611 821 589 871 q 633 715 633 771 l 633 271 q 611 165 633 214 q 551 79 589 115 q 461 22 513 43 q 351 0 410 0 l 56 0 l 56 986 m 261 788 l 261 199 l 351 199 q 406 219 383 199 q 428 271 428 240 l 428 715 q 406 767 428 746 q 351 788 383 788 l 261 788 z "},"d":{"ha":668,"x_min":56,"x_max":633,"o":"m 56 986 l 351 986 q 461 965 410 986 q 551 907 513 943 q 611 821 589 871 q 633 715 633 771 l 633 271 q 611 165 633 214 q 551 79 589 115 q 461 22 513 43 q 351 0 410 0 l 56 0 l 56 986 m 261 788 l 261 199 l 351 199 q 406 219 383 199 q 428 271 428 240 l 428 715 q 406 767 428 746 q 351 788 383 788 l 261 788 z "},"Ď":{"ha":668,"x_min":56,"x_max":633,"o":"m 56 986 l 351 986 q 461 965 410 986 q 551 907 513 943 q 611 821 589 871 q 633 715 633 771 l 633 271 q 611 165 633 214 q 551 79 589 115 q 461 22 513 43 q 351 0 410 0 l 56 0 l 56 986 m 261 788 l 261 199 l 351 199 q 406 219 383 199 q 428 271 428 240 l 428 715 q 406 767 428 746 q 351 788 383 788 l 261 788 m 371 1160 l 518 1160 l 390 1031 l 253 1031 l 113 1160 l 264 1160 l 319 1108 l 371 1160 z "},"ď":{"ha":654,"x_min":56,"x_max":633,"o":"m 56 986 l 351 986 q 461 965 410 986 q 551 907 513 943 q 611 821 589 871 q 633 715 633 771 l 633 271 q 611 165 633 214 q 551 79 589 115 q 461 22 513 43 q 351 0 410 0 l 56 0 l 56 986 m 261 788 l 261 199 l 351 199 q 406 219 383 199 q 428 271 428 240 l 428 715 q 406 767 428 746 q 351 788 383 788 l 261 788 m 371 1160 l 518 1160 l 390 1031 l 253 1031 l 113 1160 l 264 1160 l 319 1108 l 371 1160 z "},"Đ":{"ha":703,"x_min":0,"x_max":661,"o":"m 379 0 l 83 0 l 83 389 l 0 389 l 0 589 l 83 589 l 83 986 l 379 986 q 578 907 494 986 q 661 715 661 828 l 661 271 q 578 78 661 156 q 379 0 494 0 m 289 199 l 379 199 q 433 219 411 199 q 456 271 456 240 l 456 715 q 433 767 456 746 q 379 788 411 788 l 289 788 l 289 589 l 372 589 l 372 389 l 289 389 l 289 199 z "},"đ":{"ha":703,"x_min":0,"x_max":661,"o":"m 379 0 l 83 0 l 83 389 l 0 389 l 0 589 l 83 589 l 83 986 l 379 986 q 578 907 494 986 q 661 715 661 828 l 661 271 q 578 78 661 156 q 379 0 494 0 m 289 199 l 379 199 q 433 219 411 199 q 456 271 456 240 l 456 715 q 433 767 456 746 q 379 788 411 788 l 289 788 l 289 589 l 372 589 l 372 389 l 289 389 l 289 199 z "},"Ð":{"ha":657,"x_min":-7,"x_max":622,"o":"m 63 986 l 342 986 q 540 908 458 986 q 622 718 622 829 l 622 271 q 539 78 622 157 q 342 0 456 0 l 63 0 l 63 397 l -7 397 l -7 590 l 63 590 l 63 986 m 261 397 l 261 192 l 342 192 q 401 215 376 192 q 425 271 425 239 l 425 718 q 401 773 425 750 q 342 796 376 796 l 261 796 l 261 590 l 336 590 l 336 397 l 261 397 z "},"ð":{"ha":657,"x_min":-7,"x_max":622,"o":"m 63 986 l 342 986 q 540 908 458 986 q 622 718 622 829 l 622 271 q 539 78 622 157 q 342 0 456 0 l 63 0 l 63 397 l -7 397 l -7 590 l 63 590 l 63 986 m 261 397 l 261 192 l 342 192 q 401 215 376 192 q 425 271 425 239 l 425 718 q 401 773 425 750 q 342 796 376 796 l 261 796 l 261 590 l 336 590 l 336 397 l 261 397 z "},"E":{"ha":599,"x_min":56,"x_max":571,"o":"m 56 0 l 56 986 l 571 986 l 571 788 l 256 788 l 256 593 l 476 593 l 476 394 l 256 394 l 256 199 l 571 199 l 571 0 l 56 0 z "},"e":{"ha":599,"x_min":56,"x_max":571,"o":"m 56 0 l 56 986 l 571 986 l 571 788 l 256 788 l 256 593 l 476 593 l 476 394 l 256 394 l 256 199 l 571 199 l 571 0 l 56 0 z "},"É":{"ha":599,"x_min":56,"x_max":571,"o":"m 56 0 l 56 986 l 571 986 l 571 788 l 256 788 l 256 593 l 476 593 l 476 394 l 256 394 l 256 199 l 571 199 l 571 0 l 56 0 m 518 1168 l 396 1039 l 201 1039 l 253 1168 l 518 1168 z "},"é":{"ha":599,"x_min":56,"x_max":571,"o":"m 56 0 l 56 986 l 571 986 l 571 788 l 256 788 l 256 593 l 476 593 l 476 394 l 256 394 l 256 199 l 571 199 l 571 0 l 56 0 m 518 1168 l 396 1039 l 201 1039 l 253 1168 l 518 1168 z "},"Ĕ":{"ha":635,"x_min":56,"x_max":571,"o":"m 358 1178 l 486 1178 q 446 1065 486 1108 q 325 1022 406 1022 l 282 1022 q 159 1065 203 1022 q 115 1178 115 1108 l 242 1178 q 251 1147 242 1158 q 282 1135 261 1135 l 321 1135 q 349 1148 340 1135 q 358 1178 358 1161 m 56 0 l 56 986 l 571 986 l 571 788 l 256 788 l 256 593 l 476 593 l 476 394 l 256 394 l 256 199 l 571 199 l 571 0 l 56 0 z "},"ĕ":{"ha":635,"x_min":56,"x_max":571,"o":"m 358 1178 l 486 1178 q 446 1065 486 1108 q 325 1022 406 1022 l 282 1022 q 159 1065 203 1022 q 115 1178 115 1108 l 242 1178 q 251 1147 242 1158 q 282 1135 261 1135 l 321 1135 q 349 1148 340 1135 q 358 1178 358 1161 m 56 0 l 56 986 l 571 986 l 571 788 l 256 788 l 256 593 l 476 593 l 476 394 l 256 394 l 256 199 l 571 199 l 571 0 l 56 0 z "},"Ě":{"ha":599,"x_min":56,"x_max":571,"o":"m 56 0 l 56 986 l 571 986 l 571 788 l 256 788 l 256 593 l 476 593 l 476 394 l 256 394 l 256 199 l 571 199 l 571 0 l 56 0 m 365 1186 l 513 1186 l 385 1057 l 247 1057 l 107 1186 l 258 1186 l 314 1135 l 365 1186 z "},"ě":{"ha":599,"x_min":56,"x_max":571,"o":"m 56 0 l 56 986 l 571 986 l 571 788 l 256 788 l 256 593 l 476 593 l 476 394 l 256 394 l 256 199 l 571 199 l 571 0 l 56 0 m 365 1186 l 513 1186 l 385 1057 l 247 1057 l 107 1186 l 258 1186 l 314 1135 l 365 1186 z "},"Ê":{"ha":599,"x_min":56,"x_max":571,"o":"m 56 0 l 56 986 l 571 986 l 571 788 l 256 788 l 256 593 l 476 593 l 476 394 l 256 394 l 256 199 l 571 199 l 571 0 l 56 0 m 257 1026 l 110 1026 l 238 1156 l 375 1156 l 515 1026 l 364 1026 l 308 1078 l 257 1026 z "},"ê":{"ha":599,"x_min":56,"x_max":571,"o":"m 56 0 l 56 986 l 571 986 l 571 788 l 256 788 l 256 593 l 476 593 l 476 394 l 256 394 l 256 199 l 571 199 l 571 0 l 56 0 m 257 1026 l 110 1026 l 238 1156 l 375 1156 l 515 1026 l 364 1026 l 308 1078 l 257 1026 z "},"Ë":{"ha":599,"x_min":56,"x_max":571,"o":"m 56 0 l 56 986 l 571 986 l 571 788 l 256 788 l 256 593 l 476 593 l 476 394 l 256 394 l 256 199 l 571 199 l 571 0 l 56 0 m 335 1169 l 524 1169 l 524 1039 l 335 1039 l 335 1169 m 79 1169 l 268 1169 l 268 1039 l 79 1039 l 79 1169 z "},"ë":{"ha":599,"x_min":56,"x_max":571,"o":"m 56 0 l 56 986 l 571 986 l 571 788 l 256 788 l 256 593 l 476 593 l 476 394 l 256 394 l 256 199 l 571 199 l 571 0 l 56 0 m 335 1169 l 524 1169 l 524 1039 l 335 1039 l 335 1169 m 79 1169 l 268 1169 l 268 1039 l 79 1039 l 79 1169 z "},"Ė":{"ha":599,"x_min":56,"x_max":571,"o":"m 56 0 l 56 986 l 571 986 l 571 788 l 256 788 l 256 593 l 476 593 l 476 394 l 256 394 l 256 199 l 571 199 l 571 0 l 56 0 m 194 1164 l 403 1164 l 403 1033 l 194 1033 l 194 1164 z "},"ė":{"ha":599,"x_min":56,"x_max":571,"o":"m 56 0 l 56 986 l 571 986 l 571 788 l 256 788 l 256 593 l 476 593 l 476 394 l 256 394 l 256 199 l 571 199 l 571 0 l 56 0 m 194 1164 l 403 1164 l 403 1033 l 194 1033 l 194 1164 z "},"È":{"ha":599,"x_min":56,"x_max":571,"o":"m 56 0 l 56 986 l 571 986 l 571 788 l 256 788 l 256 593 l 476 593 l 476 394 l 256 394 l 256 199 l 571 199 l 571 0 l 56 0 m 243 1039 l 121 1168 l 386 1168 l 438 1039 l 243 1039 z "},"è":{"ha":599,"x_min":56,"x_max":571,"o":"m 56 0 l 56 986 l 571 986 l 571 788 l 256 788 l 256 593 l 476 593 l 476 394 l 256 394 l 256 199 l 571 199 l 571 0 l 56 0 m 243 1039 l 121 1168 l 386 1168 l 438 1039 l 243 1039 z "},"Ē":{"ha":599,"x_min":56,"x_max":571,"o":"m 56 0 l 56 986 l 571 986 l 571 788 l 256 788 l 256 593 l 476 593 l 476 394 l 256 394 l 256 199 l 571 199 l 571 0 l 56 0 m 67 1204 l 549 1204 l 549 1081 l 67 1081 l 67 1204 z "},"ē":{"ha":599,"x_min":56,"x_max":571,"o":"m 56 0 l 56 986 l 571 986 l 571 788 l 256 788 l 256 593 l 476 593 l 476 394 l 256 394 l 256 199 l 571 199 l 571 0 l 56 0 m 67 1204 l 549 1204 l 549 1081 l 67 1081 l 67 1204 z "},"Ę":{"ha":599,"x_min":56,"x_max":571,"o":"m 56 0 l 56 986 l 571 986 l 571 788 l 256 788 l 256 593 l 476 593 l 476 394 l 256 394 l 256 199 l 571 199 l 571 0 l 56 0 m 571 -64 l 571 -232 l 397 -232 q 287 -183 321 -232 q 267 -72 253 -135 q 295 63 282 0 q 308 126 308 126 l 451 4 l 435 -64 l 571 -64 z "},"ę":{"ha":599,"x_min":56,"x_max":571,"o":"m 56 0 l 56 986 l 571 986 l 571 788 l 256 788 l 256 593 l 476 593 l 476 394 l 256 394 l 256 199 l 571 199 l 571 0 l 56 0 m 571 -64 l 571 -232 l 397 -232 q 287 -183 321 -232 q 267 -72 253 -135 q 295 63 282 0 q 308 126 308 126 l 451 4 l 435 -64 l 571 -64 z "},"F":{"ha":592,"x_min":56,"x_max":571,"o":"m 56 0 l 56 986 l 571 986 l 571 788 l 256 788 l 256 593 l 476 593 l 476 394 l 256 394 l 256 0 l 56 0 z "},"f":{"ha":592,"x_min":56,"x_max":571,"o":"m 56 0 l 56 986 l 571 986 l 571 788 l 256 788 l 256 593 l 476 593 l 476 394 l 256 394 l 256 0 l 56 0 z "},"G":{"ha":644,"x_min":35,"x_max":610,"o":"m 35 724 q 119 922 35 840 q 322 1003 203 1003 q 526 922 442 1003 q 610 724 610 840 l 610 688 l 401 688 l 401 724 q 378 777 401 756 q 322 799 354 799 q 267 777 290 799 q 243 724 243 756 l 243 263 q 267 209 243 231 q 322 188 290 188 q 388 209 365 188 q 411 263 411 231 l 411 394 l 325 394 l 325 582 l 610 582 l 610 263 q 533 67 610 149 q 322 -15 456 -15 q 119 67 203 -15 q 35 263 35 149 l 35 724 z "},"g":{"ha":644,"x_min":35,"x_max":610,"o":"m 35 724 q 119 922 35 840 q 322 1003 203 1003 q 526 922 442 1003 q 610 724 610 840 l 610 688 l 401 688 l 401 724 q 378 777 401 756 q 322 799 354 799 q 267 777 290 799 q 243 724 243 756 l 243 263 q 267 209 243 231 q 322 188 290 188 q 388 209 365 188 q 411 263 411 231 l 411 394 l 325 394 l 325 582 l 610 582 l 610 263 q 533 67 610 149 q 322 -15 456 -15 q 119 67 203 -15 q 35 263 35 149 l 35 724 z "},"Ğ":{"ha":644,"x_min":35,"x_max":610,"o":"m 35 724 q 119 922 35 840 q 322 1003 203 1003 q 526 922 442 1003 q 610 724 610 840 l 610 688 l 401 688 l 401 724 q 378 777 401 756 q 322 799 354 799 q 267 777 290 799 q 243 724 243 756 l 243 263 q 267 209 243 231 q 322 188 290 188 q 388 209 365 188 q 411 263 411 231 l 411 394 l 325 394 l 325 582 l 610 582 l 610 263 q 533 67 610 149 q 322 -15 456 -15 q 119 67 203 -15 q 35 263 35 149 l 35 724 m 375 1186 l 503 1186 q 463 1074 503 1117 q 342 1031 422 1031 l 299 1031 q 176 1074 219 1031 q 132 1186 132 1117 l 258 1186 q 268 1155 258 1167 q 299 1143 278 1143 l 338 1143 q 366 1156 357 1143 q 375 1186 375 1169 z "},"ğ":{"ha":644,"x_min":35,"x_max":610,"o":"m 35 724 q 119 922 35 840 q 322 1003 203 1003 q 526 922 442 1003 q 610 724 610 840 l 610 688 l 401 688 l 401 724 q 378 777 401 756 q 322 799 354 799 q 267 777 290 799 q 243 724 243 756 l 243 263 q 267 209 243 231 q 322 188 290 188 q 388 209 365 188 q 411 263 411 231 l 411 394 l 325 394 l 325 582 l 610 582 l 610 263 q 533 67 610 149 q 322 -15 456 -15 q 119 67 203 -15 q 35 263 35 149 l 35 724 m 375 1186 l 503 1186 q 463 1074 503 1117 q 342 1031 422 1031 l 299 1031 q 176 1074 219 1031 q 132 1186 132 1117 l 258 1186 q 268 1155 258 1167 q 299 1143 278 1143 l 338 1143 q 366 1156 357 1143 q 375 1186 375 1169 z "},"Ģ":{"ha":644,"x_min":35,"x_max":610,"o":"m 35 724 q 119 922 35 840 q 322 1003 203 1003 q 526 922 442 1003 q 610 724 610 840 l 610 688 l 401 688 l 401 724 q 378 777 401 756 q 322 799 354 799 q 267 777 290 799 q 243 724 243 756 l 243 263 q 267 209 243 231 q 322 188 290 188 q 388 209 365 188 q 411 263 411 231 l 411 394 l 325 394 l 325 582 l 610 582 l 610 263 q 533 67 610 149 q 322 -15 456 -15 q 119 67 203 -15 q 35 263 35 149 l 35 724 m 254 -49 l 386 -49 l 386 -133 l 293 -224 l 254 -224 l 254 -49 z "},"ģ":{"ha":644,"x_min":35,"x_max":610,"o":"m 35 724 q 119 922 35 840 q 322 1003 203 1003 q 526 922 442 1003 q 610 724 610 840 l 610 688 l 401 688 l 401 724 q 378 777 401 756 q 322 799 354 799 q 267 777 290 799 q 243 724 243 756 l 243 263 q 267 209 243 231 q 322 188 290 188 q 388 209 365 188 q 411 263 411 231 l 411 394 l 325 394 l 325 582 l 610 582 l 610 263 q 533 67 610 149 q 322 -15 456 -15 q 119 67 203 -15 q 35 263 35 149 l 35 724 m 254 -49 l 386 -49 l 386 -133 l 293 -224 l 254 -224 l 254 -49 z "},"Ġ":{"ha":644,"x_min":35,"x_max":610,"o":"m 35 724 q 119 922 35 840 q 322 1003 203 1003 q 526 922 442 1003 q 610 724 610 840 l 610 688 l 401 688 l 401 724 q 378 777 401 756 q 322 799 354 799 q 267 777 290 799 q 243 724 243 756 l 243 263 q 267 209 243 231 q 322 188 290 188 q 388 209 365 188 q 411 263 411 231 l 411 394 l 325 394 l 325 582 l 610 582 l 610 263 q 533 67 610 149 q 322 -15 456 -15 q 119 67 203 -15 q 35 263 35 149 l 35 724 m 213 1194 l 421 1194 l 421 1064 l 213 1064 l 213 1194 z "},"ġ":{"ha":644,"x_min":35,"x_max":610,"o":"m 35 724 q 119 922 35 840 q 322 1003 203 1003 q 526 922 442 1003 q 610 724 610 840 l 610 688 l 401 688 l 401 724 q 378 777 401 756 q 322 799 354 799 q 267 777 290 799 q 243 724 243 756 l 243 263 q 267 209 243 231 q 322 188 290 188 q 388 209 365 188 q 411 263 411 231 l 411 394 l 325 394 l 325 582 l 610 582 l 610 263 q 533 67 610 149 q 322 -15 456 -15 q 119 67 203 -15 q 35 263 35 149 l 35 724 m 213 1194 l 421 1194 l 421 1064 l 213 1064 l 213 1194 z "},"H":{"ha":664,"x_min":56,"x_max":608,"o":"m 406 596 l 406 986 l 608 986 l 608 0 l 406 0 l 406 396 l 258 396 l 258 0 l 56 0 l 56 986 l 258 986 l 258 596 l 406 596 z "},"h":{"ha":664,"x_min":56,"x_max":608,"o":"m 406 596 l 406 986 l 608 986 l 608 0 l 406 0 l 406 396 l 258 396 l 258 0 l 56 0 l 56 986 l 258 986 l 258 596 l 406 596 z "},"Ħ":{"ha":692,"x_min":7,"x_max":685,"o":"m 272 596 l 419 596 l 419 713 l 272 713 l 272 596 m 272 396 l 272 0 l 69 0 l 69 713 l 7 713 l 7 867 l 69 867 l 69 986 l 272 986 l 272 867 l 419 867 l 419 986 l 622 986 l 622 867 l 685 867 l 685 713 l 622 713 l 622 0 l 419 0 l 419 396 l 272 396 z "},"ħ":{"ha":692,"x_min":7,"x_max":685,"o":"m 272 596 l 419 596 l 419 713 l 272 713 l 272 596 m 272 396 l 272 0 l 69 0 l 69 713 l 7 713 l 7 867 l 69 867 l 69 986 l 272 986 l 272 867 l 419 867 l 419 986 l 622 986 l 622 867 l 685 867 l 685 713 l 622 713 l 622 0 l 419 0 l 419 396 l 272 396 z "},"I":{"ha":311,"x_min":56,"x_max":256,"o":"m 56 986 l 256 986 l 256 0 l 56 0 l 56 986 z "},"i":{"ha":311,"x_min":56,"x_max":256,"o":"m 56 986 l 256 986 l 256 0 l 56 0 l 56 986 z "},"ı":{"ha":311,"x_min":56,"x_max":256,"o":"m 56 986 l 256 986 l 256 0 l 56 0 l 56 986 z "},"Í":{"ha":311,"x_min":56,"x_max":378,"o":"m 56 986 l 256 986 l 256 0 l 56 0 l 56 986 m 378 1178 l 256 1049 l 61 1049 l 113 1178 l 378 1178 z "},"í":{"ha":311,"x_min":56,"x_max":378,"o":"m 56 986 l 256 986 l 256 0 l 56 0 l 56 986 m 378 1178 l 256 1049 l 61 1049 l 113 1178 l 378 1178 z "},"Î":{"ha":311,"x_min":-39,"x_max":367,"o":"m 56 986 l 256 986 l 256 0 l 56 0 l 56 986 m 108 1036 l -39 1036 l 89 1165 l 226 1165 l 367 1036 l 215 1036 l 160 1088 l 108 1036 z "},"î":{"ha":311,"x_min":-39,"x_max":367,"o":"m 56 986 l 256 986 l 256 0 l 56 0 l 56 986 m 108 1036 l -39 1036 l 89 1165 l 226 1165 l 367 1036 l 215 1036 l 160 1088 l 108 1036 z "},"Ì":{"ha":311,"x_min":-62,"x_max":256,"o":"m 56 986 l 256 986 l 256 0 l 56 0 l 56 986 m 60 1050 l -62 1179 l 203 1179 l 254 1050 l 60 1050 z "},"ì":{"ha":311,"x_min":-62,"x_max":256,"o":"m 56 986 l 256 986 l 256 0 l 56 0 l 56 986 m 60 1050 l -62 1179 l 203 1179 l 254 1050 l 60 1050 z "},"Ï":{"ha":311,"x_min":-14,"x_max":325,"o":"m 179 1164 l 325 1164 l 325 1019 l 179 1019 l 179 1164 m -14 1164 l 132 1164 l 132 1019 l -14 1019 l -14 1164 m 56 986 l 256 986 l 256 0 l 56 0 l 56 986 z "},"ï":{"ha":311,"x_min":-14,"x_max":325,"o":"m 179 1164 l 325 1164 l 325 1019 l 179 1019 l 179 1164 m -14 1164 l 132 1164 l 132 1019 l -14 1019 l -14 1164 m 56 986 l 256 986 l 256 0 l 56 0 l 56 986 z "},"İ":{"ha":311,"x_min":50,"x_max":258,"o":"m 56 986 l 256 986 l 256 0 l 56 0 l 56 986 m 50 1178 l 258 1178 l 258 1047 l 50 1047 l 50 1178 z "},"Ĭ":{"ha":311,"x_min":-36,"x_max":335,"o":"m 56 986 l 256 986 l 256 0 l 56 0 l 56 986 m 207 1181 l 335 1181 q 294 1068 335 1111 q 174 1025 254 1025 l 131 1025 q 8 1068 51 1025 q -36 1181 -36 1111 l 90 1181 q 100 1149 90 1161 q 131 1138 110 1138 l 169 1138 q 198 1151 189 1138 q 207 1181 207 1164 z "},"ĭ":{"ha":311,"x_min":-36,"x_max":335,"o":"m 56 986 l 256 986 l 256 0 l 56 0 l 56 986 m 207 1181 l 335 1181 q 294 1068 335 1111 q 174 1025 254 1025 l 131 1025 q 8 1068 51 1025 q -36 1181 -36 1111 l 90 1181 q 100 1149 90 1161 q 131 1138 110 1138 l 169 1138 q 198 1151 189 1138 q 207 1181 207 1164 z "},"Ī":{"ha":311,"x_min":-44,"x_max":342,"o":"m -44 1276 l 342 1276 l 342 1097 l -44 1097 l -44 1276 m 56 986 l 256 986 l 256 0 l 56 0 l 56 986 z "},"ī":{"ha":311,"x_min":-44,"x_max":342,"o":"m -44 1276 l 342 1276 l 342 1097 l -44 1097 l -44 1276 m 56 986 l 256 986 l 256 0 l 56 0 l 56 986 z "},"Į":{"ha":311,"x_min":8,"x_max":256,"o":"m 150 -239 q 41 -186 74 -239 q 19 -79 8 -133 q 40 18 31 -29 q 56 93 50 65 l 56 986 l 256 986 l 256 0 l 188 0 l 185 -71 l 256 -71 l 256 -239 l 150 -239 z "},"į":{"ha":333,"x_min":8,"x_max":256,"o":"m 150 -239 q 41 -186 74 -239 q 19 -79 8 -133 q 40 18 31 -29 q 56 93 50 65 l 56 986 l 256 986 l 256 0 l 188 0 l 185 -71 l 256 -71 l 256 -239 l 150 -239 z "},"J":{"ha":610,"x_min":0,"x_max":554,"o":"m 349 269 l 349 986 l 554 986 l 554 269 q 470 62 554 138 q 278 -14 386 -14 q 85 69 171 -14 q 0 269 0 151 l 200 269 q 223 214 200 236 q 274 192 246 192 q 328 214 307 192 q 349 269 349 236 z "},"j":{"ha":610,"x_min":0,"x_max":554,"o":"m 349 269 l 349 986 l 554 986 l 554 269 q 470 62 554 138 q 278 -14 386 -14 q 85 69 171 -14 q 0 269 0 151 l 200 269 q 223 214 200 236 q 274 192 246 192 q 328 214 307 192 q 349 269 349 236 z "},"K":{"ha":653,"x_min":56,"x_max":660,"o":"m 657 986 l 468 506 l 660 0 l 433 0 l 294 389 l 256 389 l 256 0 l 56 0 l 56 986 l 256 986 l 256 611 l 294 611 l 433 986 l 657 986 z "},"k":{"ha":653,"x_min":56,"x_max":660,"o":"m 657 986 l 468 506 l 660 0 l 433 0 l 294 389 l 256 389 l 256 0 l 56 0 l 56 986 l 256 986 l 256 611 l 294 611 l 433 986 l 657 986 z "},"Ķ":{"ha":653,"x_min":56,"x_max":660,"o":"m 657 986 l 468 506 l 660 0 l 433 0 l 294 389 l 256 389 l 256 0 l 56 0 l 56 986 l 256 986 l 256 611 l 294 611 l 433 986 l 657 986 m 268 -49 l 400 -49 l 400 -133 l 307 -224 l 268 -224 l 268 -49 z "},"ķ":{"ha":653,"x_min":56,"x_max":660,"o":"m 657 986 l 468 506 l 660 0 l 433 0 l 294 389 l 256 389 l 256 0 l 56 0 l 56 986 l 256 986 l 256 611 l 294 611 l 433 986 l 657 986 m 268 -49 l 400 -49 l 400 -133 l 307 -224 l 268 -224 l 268 -49 z "},"L":{"ha":556,"x_min":56,"x_max":528,"o":"m 256 986 l 256 200 l 528 200 l 528 0 l 56 0 l 56 986 l 256 986 z "},"l":{"ha":556,"x_min":56,"x_max":528,"o":"m 256 986 l 256 200 l 528 200 l 528 0 l 56 0 l 56 986 l 256 986 z "},"Ł":{"ha":621,"x_min":-21,"x_max":600,"o":"m 285 428 l 285 190 l 600 190 l 600 0 l 86 0 l 86 306 l 54 282 l -21 397 l 86 468 l 86 986 l 285 986 l 285 597 l 439 704 l 514 582 l 285 428 z "},"ł":{"ha":621,"x_min":-21,"x_max":600,"o":"m 285 428 l 285 190 l 600 190 l 600 0 l 86 0 l 86 306 l 54 282 l -21 397 l 86 468 l 86 986 l 285 986 l 285 597 l 439 704 l 514 582 l 285 428 z "},"Ĺ":{"ha":556,"x_min":56,"x_max":528,"o":"m 256 986 l 256 200 l 528 200 l 528 0 l 56 0 l 56 986 l 256 986 m 385 1171 l 263 1042 l 68 1042 l 119 1171 l 385 1171 z "},"ĺ":{"ha":556,"x_min":56,"x_max":528,"o":"m 256 986 l 256 200 l 528 200 l 528 0 l 56 0 l 56 986 l 256 986 m 385 1171 l 263 1042 l 68 1042 l 119 1171 l 385 1171 z "},"Ļ":{"ha":556,"x_min":56,"x_max":528,"o":"m 256 986 l 256 200 l 528 200 l 528 0 l 56 0 l 56 986 l 256 986 m 207 -49 l 339 -49 l 339 -133 l 246 -224 l 207 -224 l 207 -49 z "},"ļ":{"ha":556,"x_min":56,"x_max":528,"o":"m 256 986 l 256 200 l 528 200 l 528 0 l 56 0 l 56 986 l 256 986 m 207 -49 l 339 -49 l 339 -133 l 246 -224 l 207 -224 l 207 -49 z "},"Ŀ":{"ha":553,"x_min":56,"x_max":528,"o":"m 256 986 l 256 200 l 528 200 l 528 0 l 56 0 l 56 986 l 256 986 z "},"ŀ":{"ha":625,"x_min":56,"x_max":528,"o":"m 256 986 l 256 200 l 528 200 l 528 0 l 56 0 l 56 986 l 256 986 z "},"Ľ":{"ha":556,"x_min":-24,"x_max":528,"o":"m 256 986 l 256 200 l 528 200 l 528 0 l 56 0 l 56 986 l 256 986 m 235 1189 l 382 1189 l 254 1060 l 117 1060 l -24 1189 l 128 1189 l 183 1138 l 235 1189 z "},"ľ":{"ha":556,"x_min":-24,"x_max":528,"o":"m 256 986 l 256 200 l 528 200 l 528 0 l 56 0 l 56 986 l 256 986 m 235 1189 l 382 1189 l 254 1060 l 117 1060 l -24 1189 l 128 1189 l 183 1138 l 235 1189 z "},"M":{"ha":806,"x_min":56,"x_max":750,"o":"m 200 986 l 404 574 l 606 986 l 750 986 l 750 0 l 550 0 l 550 454 l 444 225 l 361 225 l 257 454 l 257 0 l 56 0 l 56 986 l 200 986 z "},"m":{"ha":806,"x_min":56,"x_max":750,"o":"m 200 986 l 404 574 l 606 986 l 750 986 l 750 0 l 550 0 l 550 454 l 444 225 l 361 225 l 257 454 l 257 0 l 56 0 l 56 986 l 200 986 z "},"N":{"ha":710,"x_min":56,"x_max":654,"o":"m 454 492 l 454 986 l 654 986 l 654 0 l 471 0 l 256 474 l 256 0 l 56 0 l 56 986 l 244 983 l 454 492 z "},"n":{"ha":710,"x_min":56,"x_max":654,"o":"m 454 492 l 454 986 l 654 986 l 654 0 l 471 0 l 256 474 l 256 0 l 56 0 l 56 986 l 244 983 l 454 492 z "},"Ń":{"ha":710,"x_min":56,"x_max":654,"o":"m 454 492 l 454 986 l 654 986 l 654 0 l 471 0 l 256 474 l 256 0 l 56 0 l 56 986 l 244 983 l 454 492 m 547 1176 l 425 1047 l 231 1047 l 282 1176 l 547 1176 z "},"ń":{"ha":710,"x_min":56,"x_max":654,"o":"m 454 492 l 454 986 l 654 986 l 654 0 l 471 0 l 256 474 l 256 0 l 56 0 l 56 986 l 244 983 l 454 492 m 547 1176 l 425 1047 l 231 1047 l 282 1176 l 547 1176 z "},"Ň":{"ha":710,"x_min":56,"x_max":654,"o":"m 454 492 l 454 986 l 654 986 l 654 0 l 471 0 l 256 474 l 256 0 l 56 0 l 56 986 l 244 983 l 454 492 m 407 1163 l 554 1163 l 426 1033 l 289 1033 l 149 1163 l 300 1163 l 356 1111 l 407 1163 z "},"ň":{"ha":710,"x_min":56,"x_max":654,"o":"m 454 492 l 454 986 l 654 986 l 654 0 l 471 0 l 256 474 l 256 0 l 56 0 l 56 986 l 244 983 l 454 492 m 407 1163 l 554 1163 l 426 1033 l 289 1033 l 149 1163 l 300 1163 l 356 1111 l 407 1163 z "},"Ņ":{"ha":710,"x_min":56,"x_max":654,"o":"m 454 492 l 454 986 l 654 986 l 654 0 l 471 0 l 256 474 l 256 0 l 56 0 l 56 986 l 244 983 l 454 492 m 299 -49 l 431 -49 l 431 -133 l 338 -224 l 299 -224 l 299 -49 z "},"ņ":{"ha":710,"x_min":56,"x_max":654,"o":"m 454 492 l 454 986 l 654 986 l 654 0 l 471 0 l 256 474 l 256 0 l 56 0 l 56 986 l 244 983 l 454 492 m 299 -49 l 431 -49 l 431 -133 l 338 -224 l 299 -224 l 299 -49 z "},"Ñ":{"ha":710,"x_min":56,"x_max":654,"o":"m 454 492 l 454 986 l 654 986 l 654 0 l 471 0 l 256 474 l 256 0 l 56 0 l 56 986 l 244 983 l 454 492 m 286 1019 q 183 1063 228 1019 q 138 1168 138 1106 l 261 1168 q 274 1138 264 1147 q 303 1129 285 1129 q 360 1151 326 1129 q 433 1172 394 1172 q 529 1130 489 1172 q 569 1025 569 1088 l 431 1025 q 424 1049 431 1040 q 403 1057 418 1057 q 355 1038 389 1057 q 286 1019 321 1019 z "},"ñ":{"ha":710,"x_min":56,"x_max":654,"o":"m 454 492 l 454 986 l 654 986 l 654 0 l 471 0 l 256 474 l 256 0 l 56 0 l 56 986 l 244 983 l 454 492 m 286 1019 q 183 1063 228 1019 q 138 1168 138 1106 l 261 1168 q 274 1138 264 1147 q 303 1129 285 1129 q 360 1151 326 1129 q 433 1172 394 1172 q 529 1130 489 1172 q 569 1025 569 1088 l 431 1025 q 424 1049 431 1040 q 403 1057 418 1057 q 355 1038 389 1057 q 286 1019 321 1019 z "},"O":{"ha":643,"x_min":35,"x_max":608,"o":"m 35 724 q 118 922 35 840 q 321 1003 201 1003 q 524 922 440 1003 q 608 724 608 840 l 608 265 q 524 69 608 151 q 321 -12 440 -12 q 118 69 201 -12 q 35 265 35 151 l 35 724 m 242 724 l 242 265 q 265 212 242 233 q 321 190 288 190 q 376 212 353 190 q 399 265 399 233 l 399 724 q 376 777 399 756 q 321 799 353 799 q 265 777 288 799 q 242 724 242 756 z "},"o":{"ha":643,"x_min":35,"x_max":608,"o":"m 35 724 q 118 922 35 840 q 321 1003 201 1003 q 524 922 440 1003 q 608 724 608 840 l 608 265 q 524 69 608 151 q 321 -12 440 -12 q 118 69 201 -12 q 35 265 35 151 l 35 724 m 242 724 l 242 265 q 265 212 242 233 q 321 190 288 190 q 376 212 353 190 q 399 265 399 233 l 399 724 q 376 777 399 756 q 321 799 353 799 q 265 777 288 799 q 242 724 242 756 z "},"Ó":{"ha":643,"x_min":35,"x_max":608,"o":"m 35 724 q 118 922 35 840 q 321 1003 201 1003 q 524 922 440 1003 q 608 724 608 840 l 608 265 q 524 69 608 151 q 321 -12 440 -12 q 118 69 201 -12 q 35 265 35 151 l 35 724 m 242 724 l 242 265 q 265 212 242 233 q 321 190 288 190 q 376 212 353 190 q 399 265 399 233 l 399 724 q 376 777 399 756 q 321 799 353 799 q 265 777 288 799 q 242 724 242 756 m 531 1172 l 408 1043 l 214 1043 l 265 1172 l 531 1172 z "},"ó":{"ha":643,"x_min":35,"x_max":608,"o":"m 35 724 q 118 922 35 840 q 321 1003 201 1003 q 524 922 440 1003 q 608 724 608 840 l 608 265 q 524 69 608 151 q 321 -12 440 -12 q 118 69 201 -12 q 35 265 35 151 l 35 724 m 242 724 l 242 265 q 265 212 242 233 q 321 190 288 190 q 376 212 353 190 q 399 265 399 233 l 399 724 q 376 777 399 756 q 321 799 353 799 q 265 777 288 799 q 242 724 242 756 m 531 1172 l 408 1043 l 214 1043 l 265 1172 l 531 1172 z "},"Ô":{"ha":643,"x_min":35,"x_max":608,"o":"m 35 724 q 118 922 35 840 q 321 1003 201 1003 q 524 922 440 1003 q 608 724 608 840 l 608 265 q 524 69 608 151 q 321 -12 440 -12 q 118 69 201 -12 q 35 265 35 151 l 35 724 m 242 724 l 242 265 q 265 212 242 233 q 321 190 288 190 q 376 212 353 190 q 399 265 399 233 l 399 724 q 376 777 399 756 q 321 799 353 799 q 265 777 288 799 q 242 724 242 756 m 264 1047 l 117 1047 l 244 1176 l 382 1176 l 522 1047 l 371 1047 l 315 1099 l 264 1047 z "},"ô":{"ha":643,"x_min":35,"x_max":608,"o":"m 35 724 q 118 922 35 840 q 321 1003 201 1003 q 524 922 440 1003 q 608 724 608 840 l 608 265 q 524 69 608 151 q 321 -12 440 -12 q 118 69 201 -12 q 35 265 35 151 l 35 724 m 242 724 l 242 265 q 265 212 242 233 q 321 190 288 190 q 376 212 353 190 q 399 265 399 233 l 399 724 q 376 777 399 756 q 321 799 353 799 q 265 777 288 799 q 242 724 242 756 m 264 1047 l 117 1047 l 244 1176 l 382 1176 l 522 1047 l 371 1047 l 315 1099 l 264 1047 z "},"Ò":{"ha":643,"x_min":35,"x_max":608,"o":"m 35 724 q 118 922 35 840 q 321 1003 201 1003 q 524 922 440 1003 q 608 724 608 840 l 608 265 q 524 69 608 151 q 321 -12 440 -12 q 118 69 201 -12 q 35 265 35 151 l 35 724 m 242 724 l 242 265 q 265 212 242 233 q 321 190 288 190 q 376 212 353 190 q 399 265 399 233 l 399 724 q 376 777 399 756 q 321 799 353 799 q 265 777 288 799 q 242 724 242 756 m 258 1043 l 136 1172 l 401 1172 l 453 1043 l 258 1043 z "},"ò":{"ha":643,"x_min":35,"x_max":608,"o":"m 35 724 q 118 922 35 840 q 321 1003 201 1003 q 524 922 440 1003 q 608 724 608 840 l 608 265 q 524 69 608 151 q 321 -12 440 -12 q 118 69 201 -12 q 35 265 35 151 l 35 724 m 242 724 l 242 265 q 265 212 242 233 q 321 190 288 190 q 376 212 353 190 q 399 265 399 233 l 399 724 q 376 777 399 756 q 321 799 353 799 q 265 777 288 799 q 242 724 242 756 m 258 1043 l 136 1172 l 401 1172 l 453 1043 l 258 1043 z "},"Ö":{"ha":643,"x_min":35,"x_max":608,"o":"m 35 724 q 118 922 35 840 q 321 1003 201 1003 q 524 922 440 1003 q 608 724 608 840 l 608 265 q 524 69 608 151 q 321 -12 440 -12 q 118 69 201 -12 q 35 265 35 151 l 35 724 m 242 724 l 242 265 q 265 212 242 233 q 321 190 288 190 q 376 212 353 190 q 399 265 399 233 l 399 724 q 376 777 399 756 q 321 799 353 799 q 265 777 288 799 q 242 724 242 756 m 356 1171 l 544 1171 l 544 1040 l 356 1040 l 356 1171 m 100 1171 l 289 1171 l 289 1040 l 100 1040 l 100 1171 z "},"ö":{"ha":643,"x_min":35,"x_max":608,"o":"m 35 724 q 118 922 35 840 q 321 1003 201 1003 q 524 922 440 1003 q 608 724 608 840 l 608 265 q 524 69 608 151 q 321 -12 440 -12 q 118 69 201 -12 q 35 265 35 151 l 35 724 m 242 724 l 242 265 q 265 212 242 233 q 321 190 288 190 q 376 212 353 190 q 399 265 399 233 l 399 724 q 376 777 399 756 q 321 799 353 799 q 265 777 288 799 q 242 724 242 756 m 356 1171 l 544 1171 l 544 1040 l 356 1040 l 356 1171 m 100 1171 l 289 1171 l 289 1040 l 100 1040 l 100 1171 z "},"Õ":{"ha":646,"x_min":38,"x_max":611,"o":"m 38 724 q 121 922 38 840 q 324 1003 204 1003 q 527 922 443 1003 q 611 724 611 840 l 611 265 q 527 69 611 151 q 324 -12 443 -12 q 121 69 204 -12 q 38 265 38 151 l 38 724 m 244 724 l 244 265 q 267 212 244 233 q 324 190 290 190 q 378 212 356 190 q 401 265 401 233 l 401 724 q 378 777 401 756 q 324 799 356 799 q 267 777 290 799 q 244 724 244 756 m 264 1021 q 160 1064 206 1021 q 115 1169 115 1107 l 239 1169 q 252 1140 242 1149 q 281 1131 263 1131 q 338 1152 304 1131 q 411 1174 372 1174 q 507 1131 467 1174 q 547 1026 547 1089 l 408 1026 q 402 1050 408 1042 q 381 1058 396 1058 q 333 1040 367 1058 q 264 1021 299 1021 z "},"õ":{"ha":646,"x_min":38,"x_max":611,"o":"m 38 724 q 121 922 38 840 q 324 1003 204 1003 q 527 922 443 1003 q 611 724 611 840 l 611 265 q 527 69 611 151 q 324 -12 443 -12 q 121 69 204 -12 q 38 265 38 151 l 38 724 m 244 724 l 244 265 q 267 212 244 233 q 324 190 290 190 q 378 212 356 190 q 401 265 401 233 l 401 724 q 378 777 401 756 q 324 799 356 799 q 267 777 290 799 q 244 724 244 756 m 264 1021 q 160 1064 206 1021 q 115 1169 115 1107 l 239 1169 q 252 1140 242 1149 q 281 1131 263 1131 q 338 1152 304 1131 q 411 1174 372 1174 q 507 1131 467 1174 q 547 1026 547 1089 l 408 1026 q 402 1050 408 1042 q 381 1058 396 1058 q 333 1040 367 1058 q 264 1021 299 1021 z "},"Ŏ":{"ha":643,"x_min":35,"x_max":608,"o":"m 35 724 q 118 922 35 840 q 321 1003 201 1003 q 524 922 440 1003 q 608 724 608 840 l 608 265 q 524 69 608 151 q 321 -12 440 -12 q 118 69 201 -12 q 35 265 35 151 l 35 724 m 242 724 l 242 265 q 265 212 242 233 q 321 190 288 190 q 376 212 353 190 q 399 265 399 233 l 399 724 q 376 777 399 756 q 321 799 353 799 q 265 777 288 799 q 242 724 242 756 m 375 1183 l 503 1183 q 463 1071 503 1114 q 342 1028 422 1028 l 299 1028 q 176 1071 219 1028 q 132 1183 132 1114 l 258 1183 q 268 1152 258 1164 q 299 1140 278 1140 l 338 1140 q 366 1153 357 1140 q 375 1183 375 1167 z "},"ŏ":{"ha":643,"x_min":35,"x_max":608,"o":"m 35 724 q 118 922 35 840 q 321 1003 201 1003 q 524 922 440 1003 q 608 724 608 840 l 608 265 q 524 69 608 151 q 321 -12 440 -12 q 118 69 201 -12 q 35 265 35 151 l 35 724 m 242 724 l 242 265 q 265 212 242 233 q 321 190 288 190 q 376 212 353 190 q 399 265 399 233 l 399 724 q 376 777 399 756 q 321 799 353 799 q 265 777 288 799 q 242 724 242 756 m 375 1183 l 503 1183 q 463 1071 503 1114 q 342 1028 422 1028 l 299 1028 q 176 1071 219 1028 q 132 1183 132 1114 l 258 1183 q 268 1152 258 1164 q 299 1140 278 1140 l 338 1140 q 366 1153 357 1140 q 375 1183 375 1167 z "},"Ő":{"ha":643,"x_min":35,"x_max":608,"o":"m 35 724 q 118 922 35 840 q 321 1003 201 1003 q 524 922 440 1003 q 608 724 608 840 l 608 265 q 524 69 608 151 q 321 -12 440 -12 q 118 69 201 -12 q 35 265 35 151 l 35 724 m 242 724 l 242 265 q 265 212 242 233 q 321 190 288 190 q 376 212 353 190 q 399 265 399 233 l 399 724 q 376 777 399 756 q 321 799 353 799 q 265 777 288 799 q 242 724 242 756 m 554 1153 l 500 1043 l 340 1043 l 379 1153 l 554 1153 m 117 1040 l 146 1153 l 322 1153 l 278 1040 l 117 1040 z "},"ő":{"ha":643,"x_min":35,"x_max":608,"o":"m 35 724 q 118 922 35 840 q 321 1003 201 1003 q 524 922 440 1003 q 608 724 608 840 l 608 265 q 524 69 608 151 q 321 -12 440 -12 q 118 69 201 -12 q 35 265 35 151 l 35 724 m 242 724 l 242 265 q 265 212 242 233 q 321 190 288 190 q 376 212 353 190 q 399 265 399 233 l 399 724 q 376 777 399 756 q 321 799 353 799 q 265 777 288 799 q 242 724 242 756 m 554 1153 l 500 1043 l 340 1043 l 379 1153 l 554 1153 m 117 1040 l 146 1153 l 322 1153 l 278 1040 l 117 1040 z "},"Ō":{"ha":643,"x_min":35,"x_max":608,"o":"m 35 724 q 118 922 35 840 q 321 1003 201 1003 q 524 922 440 1003 q 608 724 608 840 l 608 265 q 524 69 608 151 q 321 -12 440 -12 q 118 69 201 -12 q 35 265 35 151 l 35 724 m 242 724 l 242 265 q 265 212 242 233 q 321 190 288 190 q 376 212 353 190 q 399 265 399 233 l 399 724 q 376 777 399 756 q 321 799 353 799 q 265 777 288 799 q 242 724 242 756 m 82 1207 l 564 1207 l 564 1083 l 82 1083 l 82 1207 z "},"ō":{"ha":643,"x_min":35,"x_max":608,"o":"m 35 724 q 118 922 35 840 q 321 1003 201 1003 q 524 922 440 1003 q 608 724 608 840 l 608 265 q 524 69 608 151 q 321 -12 440 -12 q 118 69 201 -12 q 35 265 35 151 l 35 724 m 242 724 l 242 265 q 265 212 242 233 q 321 190 288 190 q 376 212 353 190 q 399 265 399 233 l 399 724 q 376 777 399 756 q 321 799 353 799 q 265 777 288 799 q 242 724 242 756 m 82 1207 l 564 1207 l 564 1083 l 82 1083 l 82 1207 z "},"Ø":{"ha":643,"x_min":35,"x_max":608,"o":"m 236 732 l 236 429 l 383 778 q 356 803 372 796 q 321 810 339 810 q 260 785 285 810 q 236 732 236 761 m 258 204 q 286 188 269 193 q 321 182 303 182 q 382 203 357 182 q 407 260 407 224 l 407 560 l 258 204 m 585 988 l 546 896 q 592 816 575 860 q 608 732 608 772 l 608 260 q 585 151 608 201 q 524 65 563 101 q 431 7 483 28 q 321 -14 379 -14 q 245 -7 281 -14 q 181 18 210 0 l 150 -43 l 50 -6 l 97 88 q 51 170 68 128 q 35 260 35 213 l 35 732 q 58 837 35 788 q 121 924 81 886 q 211 981 160 960 q 321 1003 263 1003 q 396 997 361 1003 q 460 972 431 990 l 486 1036 l 585 988 z "},"ø":{"ha":643,"x_min":35,"x_max":608,"o":"m 236 732 l 236 429 l 383 778 q 356 803 372 796 q 321 810 339 810 q 260 785 285 810 q 236 732 236 761 m 258 204 q 286 188 269 193 q 321 182 303 182 q 382 203 357 182 q 407 260 407 224 l 407 560 l 258 204 m 585 988 l 546 896 q 592 816 575 860 q 608 732 608 772 l 608 260 q 585 151 608 201 q 524 65 563 101 q 431 7 483 28 q 321 -14 379 -14 q 245 -7 281 -14 q 181 18 210 0 l 150 -43 l 50 -6 l 97 88 q 51 170 68 128 q 35 260 35 213 l 35 732 q 58 837 35 788 q 121 924 81 886 q 211 981 160 960 q 321 1003 263 1003 q 396 997 361 1003 q 460 972 431 990 l 486 1036 l 585 988 z "},"Ǿ":{"ha":643,"x_min":35,"x_max":608,"o":"m 236 732 l 236 429 l 383 778 q 356 803 372 796 q 321 810 339 810 q 260 785 285 810 q 236 732 236 761 m 258 204 q 286 188 269 193 q 321 182 303 182 q 382 203 357 182 q 407 260 407 224 l 407 560 l 258 204 m 585 988 l 546 896 q 592 816 575 860 q 608 732 608 772 l 608 260 q 585 151 608 201 q 524 65 563 101 q 431 7 483 28 q 321 -14 379 -14 q 245 -7 281 -14 q 181 18 210 0 l 150 -43 l 50 -6 l 97 88 q 51 170 68 128 q 35 260 35 213 l 35 732 q 58 837 35 788 q 121 924 81 886 q 211 981 160 960 q 321 1003 263 1003 q 396 997 361 1003 q 460 972 431 990 l 486 1036 l 585 988 m 513 1164 l 390 1035 l 196 1035 l 247 1164 l 513 1164 z "},"ǿ":{"ha":643,"x_min":35,"x_max":608,"o":"m 236 732 l 236 429 l 383 778 q 356 803 372 796 q 321 810 339 810 q 260 785 285 810 q 236 732 236 761 m 258 204 q 286 188 269 193 q 321 182 303 182 q 382 203 357 182 q 407 260 407 224 l 407 560 l 258 204 m 585 988 l 546 896 q 592 816 575 860 q 608 732 608 772 l 608 260 q 585 151 608 201 q 524 65 563 101 q 431 7 483 28 q 321 -14 379 -14 q 245 -7 281 -14 q 181 18 210 0 l 150 -43 l 50 -6 l 97 88 q 51 170 68 128 q 35 260 35 213 l 35 732 q 58 837 35 788 q 121 924 81 886 q 211 981 160 960 q 321 1003 263 1003 q 396 997 361 1003 q 460 972 431 990 l 486 1036 l 585 988 m 513 1164 l 390 1035 l 196 1035 l 247 1164 l 513 1164 z "},"Œ":{"ha":993,"x_min":35,"x_max":951,"o":"m 232 263 q 258 210 232 235 q 325 185 285 185 q 358 192 342 185 q 389 210 375 199 q 410 235 401 221 q 418 263 418 249 l 418 726 q 410 754 418 740 q 389 779 401 768 q 358 795 375 789 q 325 801 342 801 q 258 778 285 801 q 232 726 232 754 l 232 263 m 447 933 l 447 986 l 951 986 l 951 796 l 636 796 l 636 567 l 858 567 l 858 376 l 636 376 l 636 190 l 951 190 l 951 0 l 447 0 l 447 53 q 424 28 439 39 q 390 10 408 17 q 352 -1 372 3 q 315 -6 332 -6 q 204 16 256 -6 q 115 75 153 38 q 56 160 78 111 q 35 263 35 208 l 35 726 q 56 828 35 781 q 115 914 78 876 q 204 971 153 950 q 315 992 256 992 q 389 978 350 992 q 447 933 428 964 z "},"œ":{"ha":993,"x_min":35,"x_max":951,"o":"m 232 263 q 258 210 232 235 q 325 185 285 185 q 358 192 342 185 q 389 210 375 199 q 410 235 401 221 q 418 263 418 249 l 418 726 q 410 754 418 740 q 389 779 401 768 q 358 795 375 789 q 325 801 342 801 q 258 778 285 801 q 232 726 232 754 l 232 263 m 447 933 l 447 986 l 951 986 l 951 796 l 636 796 l 636 567 l 858 567 l 858 376 l 636 376 l 636 190 l 951 190 l 951 0 l 447 0 l 447 53 q 424 28 439 39 q 390 10 408 17 q 352 -1 372 3 q 315 -6 332 -6 q 204 16 256 -6 q 115 75 153 38 q 56 160 78 111 q 35 263 35 208 l 35 726 q 56 828 35 781 q 115 914 78 876 q 204 971 153 950 q 315 992 256 992 q 389 978 350 992 q 447 933 428 964 z "},"P":{"ha":636,"x_min":56,"x_max":622,"o":"m 56 986 l 276 986 q 533 897 443 986 q 622 660 622 807 q 539 412 622 507 q 289 317 456 317 l 257 317 l 257 0 l 56 0 l 56 986 m 257 783 l 257 533 l 285 533 q 389 564 356 533 q 422 661 422 594 q 389 751 422 719 q 285 783 356 783 l 257 783 z "},"p":{"ha":636,"x_min":56,"x_max":622,"o":"m 56 986 l 276 986 q 533 897 443 986 q 622 660 622 807 q 539 412 622 507 q 289 317 456 317 l 257 317 l 257 0 l 56 0 l 56 986 m 257 783 l 257 533 l 285 533 q 389 564 356 533 q 422 661 422 594 q 389 751 422 719 q 285 783 356 783 l 257 783 z "},"Q":{"ha":642,"x_min":35,"x_max":642,"o":"m 599 721 l 599 269 q 590 199 599 233 q 563 132 581 164 l 642 54 l 496 -92 l 404 1 q 362 -9 383 -6 q 317 -12 340 -12 q 208 10 258 -12 q 118 71 157 32 q 57 160 79 108 q 35 269 35 211 l 35 721 q 57 830 35 779 q 118 919 79 881 q 208 981 157 958 q 317 1003 258 1003 q 426 981 375 1003 q 517 919 478 958 q 576 830 554 881 q 599 721 599 779 m 240 269 q 263 215 240 238 q 317 192 285 192 q 372 215 350 192 q 393 269 393 238 l 393 721 q 371 775 393 753 q 317 797 349 797 q 263 775 285 797 q 240 721 240 753 l 240 269 z "},"q":{"ha":635,"x_min":35,"x_max":642,"o":"m 599 721 l 599 269 q 590 199 599 233 q 563 132 581 164 l 642 54 l 496 -92 l 404 1 q 362 -9 383 -6 q 317 -12 340 -12 q 208 10 258 -12 q 118 71 157 32 q 57 160 79 108 q 35 269 35 211 l 35 721 q 57 830 35 779 q 118 919 79 881 q 208 981 157 958 q 317 1003 258 1003 q 426 981 375 1003 q 517 919 478 958 q 576 830 554 881 q 599 721 599 779 m 240 269 q 263 215 240 238 q 317 192 285 192 q 372 215 350 192 q 393 269 393 238 l 393 721 q 371 775 393 753 q 317 797 349 797 q 263 775 285 797 q 240 721 240 753 l 240 269 z "},"R":{"ha":657,"x_min":56,"x_max":643,"o":"m 256 531 l 281 531 q 390 563 358 531 q 421 658 421 594 q 388 749 421 714 q 281 783 356 783 l 256 783 l 256 531 m 643 0 l 436 0 l 325 321 l 256 321 l 256 0 l 56 0 l 56 986 l 285 986 q 538 888 447 986 q 628 656 628 789 q 595 506 628 576 q 507 388 563 436 l 643 0 z "},"r":{"ha":657,"x_min":56,"x_max":643,"o":"m 256 531 l 281 531 q 390 563 358 531 q 421 658 421 594 q 388 749 421 714 q 281 783 356 783 l 256 783 l 256 531 m 643 0 l 436 0 l 325 321 l 256 321 l 256 0 l 56 0 l 56 986 l 285 986 q 538 888 447 986 q 628 656 628 789 q 595 506 628 576 q 507 388 563 436 l 643 0 z "},"Ř":{"ha":657,"x_min":56,"x_max":643,"o":"m 256 531 l 281 531 q 390 563 358 531 q 421 658 421 594 q 388 749 421 714 q 281 783 356 783 l 256 783 l 256 531 m 643 0 l 436 0 l 325 321 l 256 321 l 256 0 l 56 0 l 56 986 l 285 986 q 538 888 447 986 q 628 656 628 789 q 595 506 628 576 q 507 388 563 436 l 643 0 m 376 1172 l 524 1172 l 396 1043 l 258 1043 l 118 1172 l 269 1172 l 325 1121 l 376 1172 z "},"ř":{"ha":657,"x_min":56,"x_max":643,"o":"m 256 531 l 281 531 q 390 563 358 531 q 421 658 421 594 q 388 749 421 714 q 281 783 356 783 l 256 783 l 256 531 m 643 0 l 436 0 l 325 321 l 256 321 l 256 0 l 56 0 l 56 986 l 285 986 q 538 888 447 986 q 628 656 628 789 q 595 506 628 576 q 507 388 563 436 l 643 0 m 376 1172 l 524 1172 l 396 1043 l 258 1043 l 118 1172 l 269 1172 l 325 1121 l 376 1172 z "},"Ŕ":{"ha":657,"x_min":56,"x_max":643,"o":"m 256 531 l 281 531 q 390 563 358 531 q 421 658 421 594 q 388 749 421 714 q 281 783 356 783 l 256 783 l 256 531 m 643 0 l 436 0 l 325 321 l 256 321 l 256 0 l 56 0 l 56 986 l 285 986 q 538 888 447 986 q 628 656 628 789 q 595 506 628 576 q 507 388 563 436 l 643 0 m 524 1171 l 401 1042 l 207 1042 l 258 1171 l 524 1171 z "},"ŕ":{"ha":657,"x_min":56,"x_max":643,"o":"m 256 531 l 281 531 q 390 563 358 531 q 421 658 421 594 q 388 749 421 714 q 281 783 356 783 l 256 783 l 256 531 m 643 0 l 436 0 l 325 321 l 256 321 l 256 0 l 56 0 l 56 986 l 285 986 q 538 888 447 986 q 628 656 628 789 q 595 506 628 576 q 507 388 563 436 l 643 0 m 524 1171 l 401 1042 l 207 1042 l 258 1171 l 524 1171 z "},"Ŗ":{"ha":657,"x_min":56,"x_max":643,"o":"m 256 531 l 281 531 q 390 563 358 531 q 421 658 421 594 q 388 749 421 714 q 281 783 356 783 l 256 783 l 256 531 m 643 0 l 436 0 l 325 321 l 256 321 l 256 0 l 56 0 l 56 986 l 285 986 q 538 888 447 986 q 628 656 628 789 q 595 506 628 576 q 507 388 563 436 l 643 0 m 264 -49 l 396 -49 l 396 -133 l 303 -224 l 264 -224 l 264 -49 z "},"ŗ":{"ha":657,"x_min":56,"x_max":643,"o":"m 256 531 l 281 531 q 390 563 358 531 q 421 658 421 594 q 388 749 421 714 q 281 783 356 783 l 256 783 l 256 531 m 643 0 l 436 0 l 325 321 l 256 321 l 256 0 l 56 0 l 56 986 l 285 986 q 538 888 447 986 q 628 656 628 789 q 595 506 628 576 q 507 388 563 436 l 643 0 m 264 -49 l 396 -49 l 396 -133 l 303 -224 l 264 -224 l 264 -49 z "},"S":{"ha":614,"x_min":21,"x_max":593,"o":"m 21 732 q 104 918 21 839 q 307 997 188 997 q 510 913 426 997 q 593 710 593 829 l 385 710 q 360 770 385 751 q 303 789 336 789 q 250 770 269 789 q 231 728 231 751 q 242 685 231 703 q 289 638 254 667 l 458 493 q 562 375 531 432 q 593 274 593 318 q 510 70 593 154 q 307 -14 426 -14 q 104 70 188 -14 q 21 274 21 154 l 228 274 q 249 208 231 228 q 303 188 268 188 q 355 204 335 188 q 375 254 375 221 q 356 305 375 279 q 283 378 336 331 l 115 529 q 49 617 76 564 q 21 732 21 669 z "},"s":{"ha":614,"x_min":21,"x_max":593,"o":"m 21 732 q 104 918 21 839 q 307 997 188 997 q 510 913 426 997 q 593 710 593 829 l 385 710 q 360 770 385 751 q 303 789 336 789 q 250 770 269 789 q 231 728 231 751 q 242 685 231 703 q 289 638 254 667 l 458 493 q 562 375 531 432 q 593 274 593 318 q 510 70 593 154 q 307 -14 426 -14 q 104 70 188 -14 q 21 274 21 154 l 228 274 q 249 208 231 228 q 303 188 268 188 q 355 204 335 188 q 375 254 375 221 q 356 305 375 279 q 283 378 336 331 l 115 529 q 49 617 76 564 q 21 732 21 669 z "},"Š":{"ha":642,"x_min":21,"x_max":593,"o":"m 21 732 q 104 918 21 839 q 307 997 188 997 q 510 913 426 997 q 593 710 593 829 l 385 710 q 360 770 385 751 q 303 789 336 789 q 250 770 269 789 q 231 728 231 751 q 242 685 231 703 q 289 638 254 667 l 458 493 q 562 375 531 432 q 593 274 593 318 q 510 70 593 154 q 307 -14 426 -14 q 104 70 188 -14 q 21 274 21 154 l 228 274 q 249 208 231 228 q 303 188 268 188 q 355 204 335 188 q 375 254 375 221 q 356 305 375 279 q 283 378 336 331 l 115 529 q 49 617 76 564 q 21 732 21 669 m 365 1182 l 513 1182 l 385 1053 l 247 1053 l 107 1182 l 258 1182 l 314 1131 l 365 1182 z "},"š":{"ha":614,"x_min":21,"x_max":593,"o":"m 21 732 q 104 918 21 839 q 307 997 188 997 q 510 913 426 997 q 593 710 593 829 l 385 710 q 360 770 385 751 q 303 789 336 789 q 250 770 269 789 q 231 728 231 751 q 242 685 231 703 q 289 638 254 667 l 458 493 q 562 375 531 432 q 593 274 593 318 q 510 70 593 154 q 307 -14 426 -14 q 104 70 188 -14 q 21 274 21 154 l 228 274 q 249 208 231 228 q 303 188 268 188 q 355 204 335 188 q 375 254 375 221 q 356 305 375 279 q 283 378 336 331 l 115 529 q 49 617 76 564 q 21 732 21 669 m 365 1182 l 513 1182 l 385 1053 l 247 1053 l 107 1182 l 258 1182 l 314 1131 l 365 1182 z "},"Ś":{"ha":642,"x_min":21,"x_max":593,"o":"m 21 732 q 104 918 21 839 q 307 997 188 997 q 510 913 426 997 q 593 710 593 829 l 385 710 q 360 770 385 751 q 303 789 336 789 q 250 770 269 789 q 231 728 231 751 q 242 685 231 703 q 289 638 254 667 l 458 493 q 562 375 531 432 q 593 274 593 318 q 510 70 593 154 q 307 -14 426 -14 q 104 70 188 -14 q 21 274 21 154 l 228 274 q 249 208 231 228 q 303 188 268 188 q 355 204 335 188 q 375 254 375 221 q 356 305 375 279 q 283 378 336 331 l 115 529 q 49 617 76 564 q 21 732 21 669 m 496 1175 l 374 1046 l 179 1046 l 231 1175 l 496 1175 z "},"ś":{"ha":614,"x_min":21,"x_max":593,"o":"m 21 732 q 104 918 21 839 q 307 997 188 997 q 510 913 426 997 q 593 710 593 829 l 385 710 q 360 770 385 751 q 303 789 336 789 q 250 770 269 789 q 231 728 231 751 q 242 685 231 703 q 289 638 254 667 l 458 493 q 562 375 531 432 q 593 274 593 318 q 510 70 593 154 q 307 -14 426 -14 q 104 70 188 -14 q 21 274 21 154 l 228 274 q 249 208 231 228 q 303 188 268 188 q 355 204 335 188 q 375 254 375 221 q 356 305 375 279 q 283 378 336 331 l 115 529 q 49 617 76 564 q 21 732 21 669 m 496 1175 l 374 1046 l 179 1046 l 231 1175 l 496 1175 z "},"Ş":{"ha":642,"x_min":21,"x_max":593,"o":"m 21 732 q 104 918 21 839 q 307 997 188 997 q 510 913 426 997 q 593 710 593 829 l 385 710 q 360 770 385 751 q 303 789 336 789 q 250 770 269 789 q 231 728 231 751 q 242 685 231 703 q 289 638 254 667 l 458 493 q 562 375 531 432 q 593 274 593 318 q 510 70 593 154 q 307 -14 426 -14 q 104 70 188 -14 q 21 274 21 154 l 228 274 q 249 208 231 228 q 303 188 268 188 q 355 204 335 188 q 375 254 375 221 q 356 305 375 279 q 283 378 336 331 l 115 529 q 49 617 76 564 q 21 732 21 669 m 401 0 l 383 -124 l 176 -124 l 225 0 l 401 0 z "},"ş":{"ha":614,"x_min":21,"x_max":593,"o":"m 21 732 q 104 918 21 839 q 307 997 188 997 q 510 913 426 997 q 593 710 593 829 l 385 710 q 360 770 385 751 q 303 789 336 789 q 250 770 269 789 q 231 728 231 751 q 242 685 231 703 q 289 638 254 667 l 458 493 q 562 375 531 432 q 593 274 593 318 q 510 70 593 154 q 307 -14 426 -14 q 104 70 188 -14 q 21 274 21 154 l 228 274 q 249 208 231 228 q 303 188 268 188 q 355 204 335 188 q 375 254 375 221 q 356 305 375 279 q 283 378 336 331 l 115 529 q 49 617 76 564 q 21 732 21 669 m 401 0 l 383 -124 l 176 -124 l 225 0 l 401 0 z "},"Ș":{"ha":614,"x_min":21,"x_max":593,"o":"m 21 732 q 104 918 21 839 q 307 997 188 997 q 510 913 426 997 q 593 710 593 829 l 385 710 q 360 770 385 751 q 303 789 336 789 q 250 770 269 789 q 231 728 231 751 q 242 685 231 703 q 289 638 254 667 l 458 493 q 562 375 531 432 q 593 274 593 318 q 510 70 593 154 q 307 -14 426 -14 q 104 70 188 -14 q 21 274 21 154 l 228 274 q 249 208 231 228 q 303 188 268 188 q 355 204 335 188 q 375 254 375 221 q 356 305 375 279 q 283 378 336 331 l 115 529 q 49 617 76 564 q 21 732 21 669 m 235 -49 l 367 -49 l 367 -133 l 274 -224 l 235 -224 l 235 -49 z "},"ș":{"ha":614,"x_min":21,"x_max":593,"o":"m 21 732 q 104 918 21 839 q 307 997 188 997 q 510 913 426 997 q 593 710 593 829 l 385 710 q 360 770 385 751 q 303 789 336 789 q 250 770 269 789 q 231 728 231 751 q 242 685 231 703 q 289 638 254 667 l 458 493 q 562 375 531 432 q 593 274 593 318 q 510 70 593 154 q 307 -14 426 -14 q 104 70 188 -14 q 21 274 21 154 l 228 274 q 249 208 231 228 q 303 188 268 188 q 355 204 335 188 q 375 254 375 221 q 356 305 375 279 q 283 378 336 331 l 115 529 q 49 617 76 564 q 21 732 21 669 m 235 -49 l 367 -49 l 367 -133 l 274 -224 l 235 -224 l 235 -49 z "},"T":{"ha":579,"x_min":14,"x_max":565,"o":"m 14 788 l 14 986 l 565 986 l 565 788 l 389 788 l 389 0 l 189 0 l 189 788 l 14 788 z "},"t":{"ha":579,"x_min":14,"x_max":565,"o":"m 14 788 l 14 986 l 565 986 l 565 788 l 389 788 l 389 0 l 189 0 l 189 788 l 14 788 z "},"Ť":{"ha":579,"x_min":14,"x_max":565,"o":"m 14 788 l 14 986 l 565 986 l 565 788 l 389 788 l 389 0 l 189 0 l 189 788 l 14 788 m 351 1185 l 499 1185 l 371 1056 l 233 1056 l 93 1185 l 244 1185 l 300 1133 l 351 1185 z "},"ť":{"ha":579,"x_min":14,"x_max":565,"o":"m 14 788 l 14 986 l 565 986 l 565 788 l 389 788 l 389 0 l 189 0 l 189 788 l 14 788 m 351 1185 l 499 1185 l 371 1056 l 233 1056 l 93 1185 l 244 1185 l 300 1133 l 351 1185 z "},"Ţ":{"ha":579,"x_min":14,"x_max":565,"o":"m 14 788 l 14 986 l 565 986 l 565 788 l 389 788 l 389 0 l 189 0 l 189 788 l 14 788 m 379 -43 l 361 -167 l 154 -167 l 203 -43 l 379 -43 z "},"ţ":{"ha":579,"x_min":14,"x_max":565,"o":"m 14 788 l 14 986 l 565 986 l 565 788 l 389 788 l 389 0 l 189 0 l 189 788 l 14 788 m 379 -43 l 361 -167 l 154 -167 l 203 -43 l 379 -43 z "},"Ț":{"ha":579,"x_min":14,"x_max":565,"o":"m 14 788 l 14 986 l 565 986 l 565 788 l 389 788 l 389 0 l 189 0 l 189 788 l 14 788 m 215 -49 l 347 -49 l 347 -133 l 254 -224 l 215 -224 l 215 -49 z "},"ț":{"ha":579,"x_min":14,"x_max":565,"o":"m 14 788 l 14 986 l 565 986 l 565 788 l 389 788 l 389 0 l 189 0 l 189 788 l 14 788 m 215 -49 l 347 -49 l 347 -133 l 254 -224 l 215 -224 l 215 -49 z "},"Þ":{"ha":647,"x_min":56,"x_max":613,"o":"m 246 894 l 338 894 q 444 874 394 894 q 532 819 494 854 q 591 734 569 783 q 613 628 613 685 l 613 360 q 591 253 613 303 q 532 169 569 204 q 444 113 494 133 q 338 93 394 93 l 246 93 l 246 0 l 56 0 l 56 986 l 246 986 l 246 894 m 254 704 l 254 275 l 338 275 q 397 300 372 275 q 421 360 421 325 l 421 628 q 397 683 421 663 q 338 704 372 704 l 254 704 z "},"þ":{"ha":647,"x_min":56,"x_max":613,"o":"m 246 894 l 338 894 q 444 874 394 894 q 532 819 494 854 q 591 734 569 783 q 613 628 613 685 l 613 360 q 591 253 613 303 q 532 169 569 204 q 444 113 494 133 q 338 93 394 93 l 246 93 l 246 0 l 56 0 l 56 986 l 246 986 l 246 894 m 254 704 l 254 275 l 338 275 q 397 300 372 275 q 421 360 421 325 l 421 628 q 397 683 421 663 q 338 704 372 704 l 254 704 z "},"U":{"ha":651,"x_min":42,"x_max":610,"o":"m 411 260 l 411 986 l 610 986 l 610 260 q 587 153 610 203 q 525 67 564 103 q 435 8 486 29 q 326 -14 383 -14 q 218 8 269 -14 q 128 67 167 29 q 65 153 88 103 q 42 260 42 203 l 42 986 l 240 986 l 240 260 q 267 207 240 228 q 326 186 294 186 q 385 207 358 186 q 411 260 411 228 z "},"u":{"ha":651,"x_min":42,"x_max":610,"o":"m 411 260 l 411 986 l 610 986 l 610 260 q 587 153 610 203 q 525 67 564 103 q 435 8 486 29 q 326 -14 383 -14 q 218 8 269 -14 q 128 67 167 29 q 65 153 88 103 q 42 260 42 203 l 42 986 l 240 986 l 240 260 q 267 207 240 228 q 326 186 294 186 q 385 207 358 186 q 411 260 411 228 z "},"Ú":{"ha":651,"x_min":42,"x_max":610,"o":"m 411 260 l 411 986 l 610 986 l 610 260 q 587 153 610 203 q 525 67 564 103 q 435 8 486 29 q 326 -14 383 -14 q 218 8 269 -14 q 128 67 167 29 q 65 153 88 103 q 42 260 42 203 l 42 986 l 240 986 l 240 260 q 267 207 240 228 q 326 186 294 186 q 385 207 358 186 q 411 260 411 228 m 532 1175 l 410 1046 l 215 1046 l 267 1175 l 532 1175 z "},"ú":{"ha":651,"x_min":42,"x_max":610,"o":"m 411 260 l 411 986 l 610 986 l 610 260 q 587 153 610 203 q 525 67 564 103 q 435 8 486 29 q 326 -14 383 -14 q 218 8 269 -14 q 128 67 167 29 q 65 153 88 103 q 42 260 42 203 l 42 986 l 240 986 l 240 260 q 267 207 240 228 q 326 186 294 186 q 385 207 358 186 q 411 260 411 228 m 532 1175 l 410 1046 l 215 1046 l 267 1175 l 532 1175 z "},"Û":{"ha":651,"x_min":42,"x_max":610,"o":"m 411 260 l 411 986 l 610 986 l 610 260 q 587 153 610 203 q 525 67 564 103 q 435 8 486 29 q 326 -14 383 -14 q 218 8 269 -14 q 128 67 167 29 q 65 153 88 103 q 42 260 42 203 l 42 986 l 240 986 l 240 260 q 267 207 240 228 q 326 186 294 186 q 385 207 358 186 q 411 260 411 228 m 275 1044 l 128 1044 l 256 1174 l 393 1174 l 533 1044 l 382 1044 l 326 1096 l 275 1044 z "},"û":{"ha":651,"x_min":42,"x_max":610,"o":"m 411 260 l 411 986 l 610 986 l 610 260 q 587 153 610 203 q 525 67 564 103 q 435 8 486 29 q 326 -14 383 -14 q 218 8 269 -14 q 128 67 167 29 q 65 153 88 103 q 42 260 42 203 l 42 986 l 240 986 l 240 260 q 267 207 240 228 q 326 186 294 186 q 385 207 358 186 q 411 260 411 228 m 275 1044 l 128 1044 l 256 1174 l 393 1174 l 533 1044 l 382 1044 l 326 1096 l 275 1044 z "},"Ù":{"ha":651,"x_min":42,"x_max":610,"o":"m 411 260 l 411 986 l 610 986 l 610 260 q 587 153 610 203 q 525 67 564 103 q 435 8 486 29 q 326 -14 383 -14 q 218 8 269 -14 q 128 67 167 29 q 65 153 88 103 q 42 260 42 203 l 42 986 l 240 986 l 240 260 q 267 207 240 228 q 326 186 294 186 q 385 207 358 186 q 411 260 411 228 m 249 1028 l 126 1157 l 392 1157 l 443 1028 l 249 1028 z "},"ù":{"ha":651,"x_min":42,"x_max":610,"o":"m 411 260 l 411 986 l 610 986 l 610 260 q 587 153 610 203 q 525 67 564 103 q 435 8 486 29 q 326 -14 383 -14 q 218 8 269 -14 q 128 67 167 29 q 65 153 88 103 q 42 260 42 203 l 42 986 l 240 986 l 240 260 q 267 207 240 228 q 326 186 294 186 q 385 207 358 186 q 411 260 411 228 m 249 1028 l 126 1157 l 392 1157 l 443 1028 l 249 1028 z "},"Ü":{"ha":651,"x_min":42,"x_max":610,"o":"m 411 260 l 411 986 l 610 986 l 610 260 q 587 153 610 203 q 525 67 564 103 q 435 8 486 29 q 326 -14 383 -14 q 218 8 269 -14 q 128 67 167 29 q 65 153 88 103 q 42 260 42 203 l 42 986 l 240 986 l 240 260 q 267 207 240 228 q 326 186 294 186 q 385 207 358 186 q 411 260 411 228 m 353 1158 l 542 1158 l 542 1028 l 353 1028 l 353 1158 m 97 1158 l 286 1158 l 286 1028 l 97 1028 l 97 1158 z "},"ü":{"ha":651,"x_min":42,"x_max":610,"o":"m 411 260 l 411 986 l 610 986 l 610 260 q 587 153 610 203 q 525 67 564 103 q 435 8 486 29 q 326 -14 383 -14 q 218 8 269 -14 q 128 67 167 29 q 65 153 88 103 q 42 260 42 203 l 42 986 l 240 986 l 240 260 q 267 207 240 228 q 326 186 294 186 q 385 207 358 186 q 411 260 411 228 m 353 1158 l 542 1158 l 542 1028 l 353 1028 l 353 1158 m 97 1158 l 286 1158 l 286 1028 l 97 1028 l 97 1158 z "},"Ŭ":{"ha":651,"x_min":42,"x_max":610,"o":"m 411 260 l 411 986 l 610 986 l 610 260 q 587 153 610 203 q 525 67 564 103 q 435 8 486 29 q 326 -14 383 -14 q 218 8 269 -14 q 128 67 167 29 q 65 153 88 103 q 42 260 42 203 l 42 986 l 240 986 l 240 260 q 267 207 240 228 q 326 186 294 186 q 385 207 358 186 q 411 260 411 228 m 382 1172 l 510 1172 q 469 1060 510 1103 q 349 1017 429 1017 l 306 1017 q 183 1060 226 1017 q 139 1172 139 1103 l 265 1172 q 275 1141 265 1153 q 306 1129 285 1129 l 344 1129 q 373 1142 364 1129 q 382 1172 382 1156 z "},"ŭ":{"ha":651,"x_min":42,"x_max":610,"o":"m 411 260 l 411 986 l 610 986 l 610 260 q 587 153 610 203 q 525 67 564 103 q 435 8 486 29 q 326 -14 383 -14 q 218 8 269 -14 q 128 67 167 29 q 65 153 88 103 q 42 260 42 203 l 42 986 l 240 986 l 240 260 q 267 207 240 228 q 326 186 294 186 q 385 207 358 186 q 411 260 411 228 m 382 1172 l 510 1172 q 469 1060 510 1103 q 349 1017 429 1017 l 306 1017 q 183 1060 226 1017 q 139 1172 139 1103 l 265 1172 q 275 1141 265 1153 q 306 1129 285 1129 l 344 1129 q 373 1142 364 1129 q 382 1172 382 1156 z "},"Ű":{"ha":651,"x_min":42,"x_max":610,"o":"m 411 260 l 411 986 l 610 986 l 610 260 q 587 153 610 203 q 525 67 564 103 q 435 8 486 29 q 326 -14 383 -14 q 218 8 269 -14 q 128 67 167 29 q 65 153 88 103 q 42 260 42 203 l 42 986 l 240 986 l 240 260 q 267 207 240 228 q 326 186 294 186 q 385 207 358 186 q 411 260 411 228 m 560 1153 l 506 1043 l 346 1043 l 385 1153 l 560 1153 m 122 1040 l 151 1153 l 328 1153 l 283 1040 l 122 1040 z "},"ű":{"ha":651,"x_min":42,"x_max":610,"o":"m 411 260 l 411 986 l 610 986 l 610 260 q 587 153 610 203 q 525 67 564 103 q 435 8 486 29 q 326 -14 383 -14 q 218 8 269 -14 q 128 67 167 29 q 65 153 88 103 q 42 260 42 203 l 42 986 l 240 986 l 240 260 q 267 207 240 228 q 326 186 294 186 q 385 207 358 186 q 411 260 411 228 m 560 1153 l 506 1043 l 346 1043 l 385 1153 l 560 1153 m 122 1040 l 151 1153 l 328 1153 l 283 1040 l 122 1040 z "},"Ū":{"ha":651,"x_min":42,"x_max":610,"o":"m 411 260 l 411 986 l 610 986 l 610 260 q 587 153 610 203 q 525 67 564 103 q 435 8 486 29 q 326 -14 383 -14 q 218 8 269 -14 q 128 67 167 29 q 65 153 88 103 q 42 260 42 203 l 42 986 l 240 986 l 240 260 q 267 207 240 228 q 326 186 294 186 q 385 207 358 186 q 411 260 411 228 m 82 1178 l 564 1178 l 564 1054 l 82 1054 l 82 1178 z "},"ū":{"ha":651,"x_min":42,"x_max":610,"o":"m 411 260 l 411 986 l 610 986 l 610 260 q 587 153 610 203 q 525 67 564 103 q 435 8 486 29 q 326 -14 383 -14 q 218 8 269 -14 q 128 67 167 29 q 65 153 88 103 q 42 260 42 203 l 42 986 l 240 986 l 240 260 q 267 207 240 228 q 326 186 294 186 q 385 207 358 186 q 411 260 411 228 m 82 1178 l 564 1178 l 564 1054 l 82 1054 l 82 1178 z "},"Ų":{"ha":651,"x_min":42,"x_max":610,"o":"m 333 -243 q 223 -194 257 -243 q 203 -83 189 -146 q 212 -38 207 -61 q 222 6 217 -15 q 172 32 196 17 q 128 67 147 47 q 65 153 88 103 q 42 260 42 203 l 42 986 l 240 986 l 240 260 q 267 207 240 228 q 326 186 294 186 q 385 207 358 186 q 411 260 411 228 l 411 986 l 610 986 l 610 260 q 587 153 610 203 q 525 67 564 103 q 462 20 497 39 q 388 -7 426 1 l 371 -75 l 468 -75 l 507 -243 l 333 -243 z "},"ų":{"ha":651,"x_min":42,"x_max":610,"o":"m 333 -243 q 223 -194 257 -243 q 203 -83 189 -146 q 212 -38 207 -61 q 222 6 217 -15 q 172 32 196 17 q 128 67 147 47 q 65 153 88 103 q 42 260 42 203 l 42 986 l 240 986 l 240 260 q 267 207 240 228 q 326 186 294 186 q 385 207 358 186 q 411 260 411 228 l 411 986 l 610 986 l 610 260 q 587 153 610 203 q 525 67 564 103 q 462 20 497 39 q 388 -7 426 1 l 371 -75 l 468 -75 l 507 -243 l 333 -243 z "},"Ů":{"ha":651,"x_min":42,"x_max":610,"o":"m 411 260 l 411 986 l 610 986 l 610 260 q 587 153 610 203 q 525 67 564 103 q 435 8 486 29 q 326 -14 383 -14 q 218 8 269 -14 q 128 67 167 29 q 65 153 88 103 q 42 260 42 203 l 42 986 l 240 986 l 240 260 q 267 207 240 228 q 326 186 294 186 q 385 207 358 186 q 411 260 411 228 m 358 983 l 292 983 q 190 1019 226 983 q 154 1122 154 1056 q 190 1228 154 1189 q 293 1267 225 1267 l 358 1267 q 456 1230 421 1267 q 490 1122 490 1193 q 456 1019 490 1056 q 358 983 421 983 m 357 1157 l 290 1157 q 266 1147 274 1157 q 258 1122 258 1138 q 265 1099 258 1108 q 289 1089 272 1089 l 357 1089 q 378 1098 371 1089 q 386 1122 386 1107 q 379 1148 386 1139 q 357 1157 372 1157 z "},"ů":{"ha":651,"x_min":42,"x_max":610,"o":"m 411 260 l 411 986 l 610 986 l 610 260 q 587 153 610 203 q 525 67 564 103 q 435 8 486 29 q 326 -14 383 -14 q 218 8 269 -14 q 128 67 167 29 q 65 153 88 103 q 42 260 42 203 l 42 986 l 240 986 l 240 260 q 267 207 240 228 q 326 186 294 186 q 385 207 358 186 q 411 260 411 228 m 358 983 l 292 983 q 190 1019 226 983 q 154 1122 154 1056 q 190 1228 154 1189 q 293 1267 225 1267 l 358 1267 q 456 1230 421 1267 q 490 1122 490 1193 q 456 1019 490 1056 q 358 983 421 983 m 357 1157 l 290 1157 q 266 1147 274 1157 q 258 1122 258 1138 q 265 1099 258 1108 q 289 1089 272 1089 l 357 1089 q 378 1098 371 1089 q 386 1122 386 1107 q 379 1148 386 1139 q 357 1157 372 1157 z "},"V":{"ha":663,"x_min":7,"x_max":656,"o":"m 435 0 l 228 0 l 7 986 l 213 986 l 332 415 l 449 986 l 656 986 l 435 0 z "},"v":{"ha":663,"x_min":7,"x_max":656,"o":"m 435 0 l 228 0 l 7 986 l 213 986 l 332 415 l 449 986 l 656 986 l 435 0 z "},"W":{"ha":888,"x_min":-7,"x_max":894,"o":"m 439 396 l 358 0 l 181 0 l -7 986 l 197 986 l 279 508 l 379 986 l 500 986 l 608 508 l 678 986 l 894 986 l 703 0 l 526 0 l 439 396 z "},"w":{"ha":888,"x_min":-7,"x_max":894,"o":"m 439 396 l 358 0 l 181 0 l -7 986 l 197 986 l 279 508 l 379 986 l 500 986 l 608 508 l 678 986 l 894 986 l 703 0 l 526 0 l 439 396 z "},"Ẃ":{"ha":888,"x_min":-7,"x_max":894,"o":"m 439 396 l 358 0 l 181 0 l -7 986 l 197 986 l 279 508 l 379 986 l 500 986 l 608 508 l 678 986 l 894 986 l 703 0 l 526 0 l 439 396 m 635 1154 l 513 1025 l 318 1025 l 369 1154 l 635 1154 z "},"ẃ":{"ha":888,"x_min":-7,"x_max":894,"o":"m 439 396 l 358 0 l 181 0 l -7 986 l 197 986 l 279 508 l 379 986 l 500 986 l 608 508 l 678 986 l 894 986 l 703 0 l 526 0 l 439 396 m 635 1154 l 513 1025 l 318 1025 l 369 1154 l 635 1154 z "},"Ŵ":{"ha":901,"x_min":-7,"x_max":894,"o":"m 439 396 l 358 0 l 181 0 l -7 986 l 197 986 l 279 508 l 379 986 l 500 986 l 608 508 l 678 986 l 894 986 l 703 0 l 526 0 l 439 396 m 390 1015 l 243 1015 l 371 1144 l 508 1144 l 649 1015 l 497 1015 l 442 1067 l 390 1015 z "},"ŵ":{"ha":888,"x_min":-7,"x_max":894,"o":"m 439 396 l 358 0 l 181 0 l -7 986 l 197 986 l 279 508 l 379 986 l 500 986 l 608 508 l 678 986 l 894 986 l 703 0 l 526 0 l 439 396 m 390 1015 l 243 1015 l 371 1144 l 508 1144 l 649 1015 l 497 1015 l 442 1067 l 390 1015 z "},"Ẅ":{"ha":888,"x_min":-7,"x_max":894,"o":"m 439 396 l 358 0 l 181 0 l -7 986 l 197 986 l 279 508 l 379 986 l 500 986 l 608 508 l 678 986 l 894 986 l 703 0 l 526 0 l 439 396 m 471 1149 l 660 1149 l 660 1018 l 471 1018 l 471 1149 m 215 1149 l 404 1149 l 404 1018 l 215 1018 l 215 1149 z "},"ẅ":{"ha":888,"x_min":-7,"x_max":894,"o":"m 439 396 l 358 0 l 181 0 l -7 986 l 197 986 l 279 508 l 379 986 l 500 986 l 608 508 l 678 986 l 894 986 l 703 0 l 526 0 l 439 396 m 471 1149 l 660 1149 l 660 1018 l 471 1018 l 471 1149 m 215 1149 l 404 1149 l 404 1018 l 215 1018 l 215 1149 z "},"Ẁ":{"ha":888,"x_min":-7,"x_max":894,"o":"m 439 396 l 358 0 l 181 0 l -7 986 l 197 986 l 279 508 l 379 986 l 500 986 l 608 508 l 678 986 l 894 986 l 703 0 l 526 0 l 439 396 m 364 1031 l 242 1160 l 507 1160 l 558 1031 l 364 1031 z "},"ẁ":{"ha":888,"x_min":-7,"x_max":894,"o":"m 439 396 l 358 0 l 181 0 l -7 986 l 197 986 l 279 508 l 379 986 l 500 986 l 608 508 l 678 986 l 894 986 l 703 0 l 526 0 l 439 396 m 364 1031 l 242 1160 l 507 1160 l 558 1031 l 364 1031 z "},"X":{"ha":694,"x_min":7,"x_max":688,"o":"m 667 986 l 457 496 l 688 0 l 458 0 l 344 247 l 231 0 l 7 0 l 232 494 l 22 986 l 250 986 l 346 753 l 444 986 l 667 986 z "},"x":{"ha":694,"x_min":7,"x_max":688,"o":"m 667 986 l 457 496 l 688 0 l 458 0 l 344 247 l 231 0 l 7 0 l 232 494 l 22 986 l 250 986 l 346 753 l 444 986 l 667 986 z "},"Y":{"ha":636,"x_min":-7,"x_max":643,"o":"m 643 986 l 421 379 l 421 0 l 219 0 l 219 379 l -7 986 l 203 986 l 319 635 l 435 986 l 643 986 z "},"y":{"ha":636,"x_min":-7,"x_max":643,"o":"m 643 986 l 421 379 l 421 0 l 219 0 l 219 379 l -7 986 l 203 986 l 319 635 l 435 986 l 643 986 z "},"Ÿ":{"ha":636,"x_min":-7,"x_max":643,"o":"m 643 986 l 421 379 l 421 0 l 219 0 l 219 379 l -7 986 l 203 986 l 319 635 l 435 986 l 643 986 m 346 1179 l 535 1179 l 535 1049 l 346 1049 l 346 1179 m 90 1179 l 279 1179 l 279 1049 l 90 1049 l 90 1179 z "},"ÿ":{"ha":636,"x_min":-7,"x_max":643,"o":"m 643 986 l 421 379 l 421 0 l 219 0 l 219 379 l -7 986 l 203 986 l 319 635 l 435 986 l 643 986 m 346 1179 l 535 1179 l 535 1049 l 346 1049 l 346 1179 m 90 1179 l 279 1179 l 279 1049 l 90 1049 l 90 1179 z "},"Ý":{"ha":636,"x_min":-7,"x_max":643,"o":"m 643 986 l 421 379 l 421 0 l 219 0 l 219 379 l -7 986 l 203 986 l 319 635 l 435 986 l 643 986 m 522 1168 l 400 1039 l 206 1039 l 257 1168 l 522 1168 z "},"ý":{"ha":636,"x_min":-7,"x_max":643,"o":"m 643 986 l 421 379 l 421 0 l 219 0 l 219 379 l -7 986 l 203 986 l 319 635 l 435 986 l 643 986 m 522 1168 l 400 1039 l 206 1039 l 257 1168 l 522 1168 z "},"Ŷ":{"ha":636,"x_min":-7,"x_max":643,"o":"m 643 986 l 421 379 l 421 0 l 219 0 l 219 379 l -7 986 l 203 986 l 319 635 l 435 986 l 643 986 m 267 1008 l 119 1008 l 247 1138 l 385 1138 l 525 1008 l 374 1008 l 318 1060 l 267 1008 z "},"ŷ":{"ha":636,"x_min":-7,"x_max":643,"o":"m 643 986 l 421 379 l 421 0 l 219 0 l 219 379 l -7 986 l 203 986 l 319 635 l 435 986 l 643 986 m 267 1008 l 119 1008 l 247 1138 l 385 1138 l 525 1008 l 374 1008 l 318 1060 l 267 1008 z "},"Ỳ":{"ha":636,"x_min":-7,"x_max":643,"o":"m 643 986 l 421 379 l 421 0 l 219 0 l 219 379 l -7 986 l 203 986 l 319 635 l 435 986 l 643 986 m 269 1028 l 147 1157 l 413 1157 l 464 1028 l 269 1028 z "},"ỳ":{"ha":636,"x_min":-7,"x_max":643,"o":"m 643 986 l 421 379 l 421 0 l 219 0 l 219 379 l -7 986 l 203 986 l 319 635 l 435 986 l 643 986 m 269 1028 l 147 1157 l 413 1157 l 464 1028 l 269 1028 z "},"Z":{"ha":592,"x_min":21,"x_max":571,"o":"m 21 0 l 21 153 l 308 786 l 21 786 l 21 986 l 571 986 l 571 851 l 282 200 l 571 200 l 571 0 l 21 0 z "},"z":{"ha":592,"x_min":21,"x_max":571,"o":"m 21 0 l 21 153 l 308 786 l 21 786 l 21 986 l 571 986 l 571 851 l 282 200 l 571 200 l 571 0 l 21 0 z "},"Ž":{"ha":592,"x_min":21,"x_max":571,"o":"m 21 0 l 21 153 l 308 786 l 21 786 l 21 986 l 571 986 l 571 851 l 282 200 l 571 200 l 571 0 l 21 0 m 357 1181 l 504 1181 l 376 1051 l 239 1051 l 99 1181 l 250 1181 l 306 1129 l 357 1181 z "},"ž":{"ha":592,"x_min":21,"x_max":571,"o":"m 21 0 l 21 153 l 308 786 l 21 786 l 21 986 l 571 986 l 571 851 l 282 200 l 571 200 l 571 0 l 21 0 m 357 1181 l 504 1181 l 376 1051 l 239 1051 l 99 1181 l 250 1181 l 306 1129 l 357 1181 z "},"Ź":{"ha":592,"x_min":21,"x_max":571,"o":"m 21 0 l 21 153 l 308 786 l 21 786 l 21 986 l 571 986 l 571 851 l 282 200 l 571 200 l 571 0 l 21 0 m 485 1161 l 363 1032 l 168 1032 l 219 1161 l 485 1161 z "},"ź":{"ha":592,"x_min":21,"x_max":571,"o":"m 21 0 l 21 153 l 308 786 l 21 786 l 21 986 l 571 986 l 571 851 l 282 200 l 571 200 l 571 0 l 21 0 m 485 1161 l 363 1032 l 168 1032 l 219 1161 l 485 1161 z "},"Ż":{"ha":592,"x_min":21,"x_max":571,"o":"m 21 0 l 21 153 l 308 786 l 21 786 l 21 986 l 571 986 l 571 851 l 282 200 l 571 200 l 571 0 l 21 0 m 168 1164 l 376 1164 l 376 1033 l 168 1033 l 168 1164 z "},"ż":{"ha":592,"x_min":21,"x_max":571,"o":"m 21 0 l 21 153 l 308 786 l 21 786 l 21 986 l 571 986 l 571 851 l 282 200 l 571 200 l 571 0 l 21 0 m 168 1164 l 376 1164 l 376 1033 l 168 1033 l 168 1164 z "},"ǝ":{"ha":599,"x_min":28,"x_max":543,"o":"m 543 986 l 543 0 l 28 0 l 28 199 l 343 199 l 343 394 l 122 394 l 122 593 l 343 593 l 343 788 l 28 788 l 28 986 l 543 986 z "},"ß":{"ha":690,"x_min":49,"x_max":683,"o":"m 563 613 q 638 544 592 601 q 683 383 683 486 l 683 304 q 599 84 683 168 q 339 0 515 0 l 339 203 q 442 233 410 203 q 474 304 474 264 l 474 361 q 442 439 474 408 q 329 469 411 469 l 406 792 l 360 792 q 292 770 318 792 q 267 694 267 749 l 267 0 l 49 0 l 49 701 q 133 915 49 832 q 349 999 217 999 l 457 999 q 602 964 560 999 q 624 849 644 929 l 563 613 z "},"#":{"ha":717,"x_min":42,"x_max":675,"o":"m 413 588 l 413 685 l 314 685 l 314 588 l 413 588 m 413 986 l 593 986 l 593 865 l 675 865 l 675 685 l 593 685 l 593 588 l 675 588 l 675 406 l 593 406 l 593 286 l 413 286 l 413 406 l 314 406 l 314 286 l 138 286 l 138 406 l 42 406 l 42 588 l 138 588 l 138 685 l 42 685 l 42 865 l 138 865 l 138 986 l 314 986 l 314 865 l 413 865 l 413 986 z "},"°":{"ha":439,"x_min":7,"x_max":432,"o":"m 432 788 q 374 640 432 701 q 219 579 315 579 q 66 640 125 579 q 7 788 7 701 q 65 936 7 875 q 219 997 124 997 q 374 936 315 997 q 432 788 432 875 m 296 788 q 273 843 296 822 q 219 864 250 864 q 165 843 188 864 q 143 788 143 822 q 165 734 143 756 q 219 713 188 713 q 273 735 250 713 q 296 788 296 757 z "},"%":{"ha":846,"x_min":21,"x_max":825,"o":"m 382 699 q 328 575 382 626 q 200 524 275 524 q 72 576 124 524 q 21 699 21 628 l 21 826 q 72 949 21 897 q 200 1001 124 1001 q 328 950 275 1001 q 382 826 382 899 l 382 699 m 622 986 l 793 986 l 215 0 l 40 0 l 622 986 m 240 714 l 240 811 q 228 853 240 843 q 200 864 217 864 q 172 853 183 864 q 160 811 160 843 l 160 714 q 172 674 160 685 q 200 664 183 664 q 228 674 217 664 q 240 714 240 685 m 463 294 q 515 417 463 365 q 643 469 567 469 q 772 418 718 469 q 825 294 825 367 l 825 167 q 772 43 825 94 q 643 -8 718 -8 q 515 44 567 -8 q 463 167 463 96 l 463 294 m 601 279 l 601 182 q 614 140 601 150 q 643 129 626 129 q 674 140 661 129 q 686 182 686 150 l 686 279 q 674 319 686 308 q 643 329 661 329 q 614 319 626 329 q 601 279 601 308 z "},".":{"ha":243,"x_min":21,"x_max":222,"o":"m 21 92 q 53 163 21 135 q 121 192 85 192 q 190 167 158 192 q 222 92 222 142 q 190 19 222 47 q 121 -10 157 -10 q 53 19 86 -10 q 21 92 21 47 z "},"…":{"ha":922,"x_min":21,"x_max":865,"o":"m 344 92 q 376 163 344 135 q 444 192 408 192 q 514 167 482 192 q 546 92 546 142 q 513 19 546 47 q 444 -10 481 -10 q 377 19 410 -10 q 344 92 344 47 m 21 92 q 53 163 21 135 q 121 192 85 192 q 190 167 158 192 q 222 92 222 142 q 190 19 222 47 q 121 -10 157 -10 q 53 19 86 -10 q 21 92 21 47 m 664 92 q 696 163 664 135 q 764 192 728 192 q 833 167 801 192 q 865 92 865 142 q 833 19 865 47 q 764 -10 800 -10 q 697 19 729 -10 q 664 92 664 47 z "},":":{"ha":286,"x_min":42,"x_max":244,"o":"m 42 678 q 74 749 42 721 q 142 778 106 778 q 211 753 179 778 q 243 678 243 728 q 210 605 243 633 q 142 576 178 576 q 74 605 107 576 q 42 678 42 633 m 43 239 q 75 310 43 282 q 143 339 107 339 q 213 314 181 339 q 244 239 244 289 q 212 166 244 194 q 143 138 179 138 q 76 166 108 138 q 43 239 43 194 z "},",":{"ha":306,"x_min":35,"x_max":243,"o":"m 35 200 l 243 200 l 243 0 l 96 -151 l 35 -151 l 35 200 z "},";":{"ha":303,"x_min":35,"x_max":268,"o":"m 35 635 q 72 717 35 685 q 151 750 110 750 q 231 717 193 750 q 268 635 268 685 q 230 550 268 583 q 151 517 192 517 q 73 550 111 517 q 35 635 35 583 m 46 -29 l 46 322 l 254 322 l 254 122 l 107 -29 l 46 -29 z "},"!":{"ha":325,"x_min":49,"x_max":276,"o":"m 221 293 l 103 293 l 49 664 l 49 986 l 276 986 l 276 664 l 221 293 m 53 92 q 85 163 53 135 q 153 192 117 192 q 222 167 190 192 q 254 92 254 142 q 222 19 254 47 q 153 -10 189 -10 q 85 19 118 -10 q 53 92 53 47 z "},"¡":{"ha":325,"x_min":63,"x_max":290,"o":"m 286 894 q 254 823 286 851 q 186 794 222 794 q 117 819 149 794 q 85 894 85 844 q 117 967 85 939 q 186 996 150 996 q 253 967 221 996 q 286 894 286 939 m 118 693 l 236 693 l 290 322 l 290 0 l 63 0 l 63 322 l 118 693 z "},"?":{"ha":597,"x_min":-7,"x_max":563,"o":"m -7 717 q 77 917 -7 833 q 278 1001 161 1001 q 480 922 397 1001 q 563 728 563 842 q 528 610 563 658 q 461 536 493 563 q 406 478 444 522 q 368 394 368 435 l 368 301 l 175 301 l 175 418 q 216 546 175 486 q 297 646 257 606 q 339 692 322 671 q 356 724 356 714 q 333 779 356 760 q 278 799 310 799 q 219 775 243 799 q 194 717 194 751 l -7 717 m 167 92 q 199 163 167 135 q 267 192 231 192 q 336 167 304 192 q 368 92 368 142 q 335 19 368 47 q 267 -10 303 -10 q 199 19 232 -10 q 167 92 167 47 z "},"¿":{"ha":597,"x_min":35,"x_max":604,"o":"m 397 813 q 361 790 381 797 q 324 782 342 782 q 285 790 304 782 q 250 813 265 797 q 225 846 235 826 q 215 889 215 865 q 247 966 215 933 q 324 999 279 999 q 364 990 344 999 q 399 965 383 981 q 423 931 414 950 q 432 889 432 911 q 422 846 432 865 q 397 813 413 826 m 319 -15 q 208 6 260 -15 q 118 65 156 28 q 57 151 79 101 q 35 258 35 201 q 44 321 35 292 q 69 375 54 350 q 101 417 83 399 q 136 450 119 436 q 160 472 144 457 q 192 508 175 488 q 218 549 207 528 q 229 592 229 571 l 229 685 l 422 685 l 422 568 q 410 500 422 532 q 381 440 399 468 q 342 388 363 413 q 304 344 322 364 l 281 321 q 255 290 268 306 q 242 263 242 275 q 250 226 242 240 q 271 203 258 211 q 295 191 282 194 q 319 188 308 188 q 378 211 354 188 q 403 269 403 235 l 604 269 q 582 159 604 211 q 521 68 560 107 q 430 7 482 29 q 319 -15 378 -15 z "},"&":{"ha":699,"x_min":56,"x_max":685,"o":"m 600 599 l 685 599 l 685 425 l 600 425 l 600 261 q 524 65 600 143 q 339 -14 449 -14 q 138 67 221 -14 q 56 261 56 149 l 56 344 q 74 437 56 396 q 126 508 92 478 q 73 585 90 542 q 56 678 56 629 l 56 724 q 138 917 56 836 q 339 997 219 997 l 342 997 l 356 996 l 356 804 l 339 804 q 279 780 303 804 q 256 724 256 756 l 256 678 q 279 622 256 646 q 339 599 303 599 l 421 599 l 421 742 l 600 742 l 600 599 m 256 261 q 279 204 256 228 q 339 181 303 181 q 397 204 372 181 q 421 261 421 228 l 421 425 l 339 425 q 279 401 303 425 q 256 344 256 378 l 256 261 z "},"'":{"ha":181,"x_min":14,"x_max":167,"o":"m 14 986 l 167 986 l 167 661 l 14 661 l 14 986 z "},"\"":{"ha":375,"x_min":14,"x_max":361,"o":"m 208 986 l 361 986 l 361 661 l 208 661 l 208 986 m 14 986 l 167 986 l 167 661 l 14 661 l 14 986 z "},"‘":{"ha":271,"x_min":21,"x_max":229,"o":"m 229 986 l 229 635 l 168 635 l 21 786 l 21 986 l 229 986 z "},"“":{"ha":557,"x_min":21,"x_max":515,"o":"m 21 986 l 229 986 l 229 635 l 168 635 l 21 786 l 21 986 m 307 986 l 515 986 l 515 635 l 454 635 l 307 786 l 307 986 z "},"’":{"ha":306,"x_min":56,"x_max":271,"o":"m 56 635 l 56 986 l 271 986 l 271 786 l 125 635 l 56 635 z "},"”":{"ha":571,"x_min":56,"x_max":550,"o":"m 342 986 l 550 986 l 550 786 l 403 635 l 342 635 l 342 986 m 56 986 l 264 986 l 264 786 l 117 635 l 56 635 l 56 986 z "},"‚":{"ha":306,"x_min":49,"x_max":264,"o":"m 264 349 l 264 -3 l 49 -3 l 49 197 l 194 349 l 264 349 z "},"„":{"ha":571,"x_min":42,"x_max":536,"o":"m 250 1 l 42 1 l 42 201 l 189 353 l 250 353 l 250 1 m 536 1 l 328 1 l 328 201 l 475 353 l 536 353 l 536 1 z "},"‹":{"ha":233,"x_min":21,"x_max":213,"o":"m 213 565 l 143 501 l 213 440 l 213 279 l 21 453 l 21 550 l 213 722 l 213 565 z "},"›":{"ha":233,"x_min":35,"x_max":226,"o":"m 35 435 l 104 499 l 35 560 l 35 721 l 226 547 l 226 450 l 35 278 l 35 435 z "},"«":{"ha":447,"x_min":21,"x_max":426,"o":"m 426 565 l 357 501 l 426 440 l 426 279 l 235 453 l 235 550 l 426 722 l 426 565 m 213 565 l 143 501 l 213 440 l 213 279 l 21 453 l 21 550 l 213 722 l 213 565 z "},"»":{"ha":447,"x_min":35,"x_max":440,"o":"m 249 435 l 318 499 l 249 560 l 249 721 l 440 547 l 440 450 l 249 278 l 249 435 m 35 435 l 104 499 l 35 560 l 35 721 l 226 547 l 226 450 l 35 278 l 35 435 z "},"·":{"ha":278,"x_min":7,"x_max":208,"o":"m 7 501 q 39 573 7 544 q 107 601 71 601 q 176 576 144 601 q 208 501 208 551 q 176 428 208 457 q 107 400 143 400 q 40 428 72 400 q 7 501 7 457 z "},"•":{"ha":413,"x_min":49,"x_max":364,"o":"m 49 503 q 98 613 49 565 q 207 660 147 660 q 315 613 265 660 q 364 503 364 567 q 314 390 364 436 q 207 344 264 344 q 99 391 150 344 q 49 503 49 438 z "},"@":{"ha":726,"x_min":69,"x_max":657,"o":"m 328 571 q 369 693 328 654 q 465 732 410 732 q 422 790 447 776 q 361 804 396 804 q 296 776 324 804 q 268 706 268 747 l 268 260 q 292 196 268 224 q 354 168 317 168 q 408 193 385 168 q 432 246 432 218 l 638 246 q 553 53 638 133 q 360 -28 468 -28 q 151 53 233 -28 q 69 260 69 133 l 69 710 q 151 917 69 836 q 358 999 232 999 q 569 919 482 999 q 657 675 657 839 l 657 450 q 609 334 657 379 q 494 289 561 289 q 378 337 429 289 q 328 451 328 385 l 328 571 m 464 446 q 473 426 464 433 q 492 419 482 419 q 511 426 503 419 q 519 446 519 433 l 519 583 q 511 605 519 597 q 492 613 503 613 q 471 605 478 613 q 464 583 464 597 l 464 446 z "},"(":{"ha":386,"x_min":35,"x_max":344,"o":"m 35 818 q 58 927 35 875 q 122 1019 82 979 q 213 1081 161 1058 q 322 1104 265 1104 l 344 1104 l 344 882 l 322 882 q 268 863 290 882 q 246 811 246 843 l 246 190 q 268 133 246 156 q 322 110 290 110 l 344 110 l 344 -108 l 322 -108 q 213 -85 265 -108 q 122 -21 161 -61 q 58 74 82 19 q 35 190 35 129 l 35 818 z "},")":{"ha":379,"x_min":35,"x_max":344,"o":"m 258 1019 q 321 927 297 979 q 344 818 344 875 l 344 190 q 321 74 344 129 q 258 -21 297 19 q 166 -85 218 -61 q 57 -108 114 -108 l 35 -108 l 35 110 l 57 110 q 111 133 89 110 q 133 190 133 156 l 133 811 q 111 863 133 843 q 57 882 89 882 l 35 882 l 35 1104 l 57 1104 q 166 1081 114 1104 q 258 1019 218 1058 z "},"[":{"ha":460,"x_min":56,"x_max":425,"o":"m 425 1086 l 425 888 l 254 888 l 254 101 l 425 101 l 425 -96 l 56 -96 l 56 1086 l 425 1086 z "},"]":{"ha":460,"x_min":35,"x_max":404,"o":"m 35 1086 l 404 1086 l 404 -96 l 35 -96 l 35 101 l 206 101 l 206 888 l 35 888 l 35 1086 z "},"{":{"ha":464,"x_min":21,"x_max":429,"o":"m 121 817 q 143 929 121 876 q 204 1021 165 982 q 294 1083 242 1060 q 406 1106 346 1106 l 429 1106 l 429 888 l 406 888 q 346 865 369 888 q 322 810 322 842 l 322 668 q 320 622 322 649 q 311 568 318 594 q 289 520 303 542 q 251 490 275 499 q 289 459 275 479 q 311 414 303 439 q 320 363 318 389 q 322 314 322 336 l 322 189 q 346 129 322 153 q 406 106 369 106 l 429 106 l 429 -107 l 406 -107 q 294 -84 346 -107 q 204 -22 242 -61 q 143 72 165 18 q 121 189 121 126 l 121 318 q 97 367 115 351 q 44 383 78 383 l 21 383 l 21 592 l 49 592 q 98 617 75 597 q 121 668 121 636 l 121 817 z "},"}":{"ha":450,"x_min":35,"x_max":443,"o":"m 261 1021 q 321 929 299 982 q 343 817 343 876 l 343 668 q 366 617 343 636 q 415 592 389 597 l 443 592 l 443 383 l 419 383 q 368 367 388 383 q 343 318 349 351 l 343 189 q 321 72 343 126 q 261 -22 299 18 q 170 -84 222 -61 q 58 -107 118 -107 l 35 -107 l 35 106 l 58 106 q 118 129 94 106 q 142 189 142 153 l 142 314 q 144 363 142 336 q 153 414 146 389 q 174 459 160 439 q 213 490 189 479 q 174 520 189 499 q 153 568 160 542 q 144 622 146 594 q 142 668 142 649 l 142 810 q 118 865 142 842 q 58 888 94 888 l 35 888 l 35 1106 l 58 1106 q 170 1083 118 1106 q 261 1021 222 1060 z "},"|":{"ha":292,"x_min":49,"x_max":243,"o":"m 49 0 l 49 986 l 243 986 l 243 0 l 49 0 z "},"¦":{"ha":292,"x_min":49,"x_max":243,"o":"m 49 563 l 49 986 l 243 986 l 243 563 l 49 563 m 49 0 l 49 396 l 243 396 l 243 0 l 49 0 z "},"-":{"ha":456,"x_min":42,"x_max":414,"o":"m 42 585 l 414 585 l 414 385 l 42 385 l 42 585 z "},"–":{"ha":628,"x_min":42,"x_max":586,"o":"m 42 585 l 586 585 l 586 396 l 42 396 l 42 585 z "},"—":{"ha":890,"x_min":63,"x_max":828,"o":"m 63 585 l 828 585 l 828 389 l 63 389 l 63 585 z "},"_":{"ha":710,"x_min":-7,"x_max":717,"o":"m -7 0 l 717 0 l 717 -196 l -7 -196 l -7 0 z "},"/":{"ha":474,"x_min":7,"x_max":467,"o":"m 7 0 l 265 986 l 467 986 l 217 0 l 7 0 z "},"\\":{"ha":474,"x_min":7,"x_max":467,"o":"m 467 0 l 257 0 l 7 986 l 208 986 l 467 0 z "},"*":{"ha":354,"x_min":-7,"x_max":361,"o":"m 267 838 l 325 758 l 236 688 l 176 767 l 121 688 l 29 756 l 85 835 l -7 863 l 26 969 l 124 942 l 124 1043 l 233 1043 l 233 944 l 322 972 l 361 865 l 267 838 z "},"^":{"ha":392,"x_min":-7,"x_max":399,"o":"m 140 676 l -7 676 l 121 986 l 258 986 l 399 676 l 247 676 l 192 810 l 140 676 z "},"~":{"ha":660,"x_min":11,"x_max":643,"o":"m 228 419 q 77 483 143 419 q 11 638 11 546 l 192 638 q 211 594 196 607 q 253 581 226 581 q 337 612 288 581 q 443 643 386 643 q 584 581 525 643 q 643 428 643 519 l 439 428 q 430 463 439 450 q 399 475 421 475 q 329 447 379 475 q 228 419 279 419 z "},"+":{"ha":625,"x_min":35,"x_max":590,"o":"m 590 583 l 590 400 l 404 400 l 404 207 l 221 207 l 221 400 l 35 400 l 35 583 l 221 583 l 221 778 l 404 778 l 404 583 l 590 583 z "},"−":{"ha":486,"x_min":35,"x_max":451,"o":"m 451 583 l 451 400 l 35 400 l 35 583 l 451 583 z "},"±":{"ha":625,"x_min":35,"x_max":590,"o":"m 35 175 l 35 321 l 221 321 l 221 508 l 35 508 l 35 692 l 221 692 l 221 886 l 404 886 l 404 692 l 590 692 l 590 508 l 404 508 l 404 321 l 585 321 l 585 175 l 35 175 z "},"×":{"ha":669,"x_min":63,"x_max":607,"o":"m 465 776 l 607 636 l 475 506 l 607 374 l 465 233 l 335 364 l 203 233 l 63 374 l 194 506 l 63 636 l 203 776 l 335 646 l 465 776 z "},"÷":{"ha":568,"x_min":42,"x_max":526,"o":"m 199 728 q 227 791 199 764 q 289 818 256 818 q 351 792 324 818 q 379 728 379 765 q 351 664 379 690 q 289 638 322 638 q 228 664 257 638 q 199 728 199 690 m 42 578 l 526 578 l 526 432 l 42 432 l 42 578 m 199 285 q 227 348 199 321 q 289 375 256 375 q 351 349 324 375 q 379 285 379 322 q 351 221 379 247 q 289 194 322 194 q 228 221 257 194 q 199 285 199 247 z "},"=":{"ha":581,"x_min":49,"x_max":532,"o":"m 49 738 l 532 738 l 532 561 l 49 561 l 49 738 m 49 465 l 532 465 l 532 289 l 49 289 l 49 465 z "},"<":{"ha":581,"x_min":49,"x_max":518,"o":"m 49 413 l 49 574 l 518 772 l 518 568 l 306 493 l 518 418 l 518 214 l 49 413 z "},">":{"ha":567,"x_min":63,"x_max":532,"o":"m 532 413 l 63 214 l 63 418 l 275 493 l 63 568 l 63 772 l 532 574 l 532 413 z "},"́":{"ha":393,"x_min":40,"x_max":357,"o":"m 357 1289 l 235 1160 l 40 1160 l 92 1289 l 357 1289 z "},"̋":{"ha":360,"x_min":-31,"x_max":407,"o":"m 407 1153 l 353 1043 l 193 1043 l 232 1153 l 407 1153 m -31 1040 l -1 1153 l 175 1153 l 131 1040 l -31 1040 z "},"`":{"ha":542,"x_min":163,"x_max":479,"o":"m 285 1042 l 163 1171 l 428 1171 l 479 1042 l 285 1042 z "},"̂":{"ha":339,"x_min":-26,"x_max":379,"o":"m 121 1018 l -26 1018 l 101 1147 l 239 1147 l 379 1018 l 228 1018 l 172 1069 l 121 1018 z "},"̌":{"ha":338,"x_min":-22,"x_max":383,"o":"m 236 1201 l 383 1201 l 256 1072 l 118 1072 l -22 1201 l 129 1201 l 185 1150 l 236 1201 z "},"̆":{"ha":393,"x_min":11,"x_max":382,"o":"m 254 1165 l 382 1165 q 342 1053 382 1096 q 221 1010 301 1010 l 178 1010 q 55 1053 99 1010 q 11 1165 11 1096 l 138 1165 q 147 1134 138 1146 q 178 1122 157 1122 l 217 1122 q 245 1135 236 1122 q 254 1165 254 1149 z "},"̃":{"ha":681,"x_min":24,"x_max":456,"o":"m 172 1004 q 69 1047 114 1004 q 24 1153 24 1090 l 147 1153 q 160 1123 150 1132 q 189 1114 171 1114 q 247 1135 213 1114 q 319 1157 281 1157 q 415 1115 375 1157 q 456 1010 456 1072 l 317 1010 q 310 1033 317 1025 q 289 1042 304 1042 q 241 1023 275 1042 q 172 1004 207 1004 z "},"¯":{"ha":681,"x_min":79,"x_max":561,"o":"m 79 1101 l 561 1101 l 561 978 l 79 978 l 79 1101 z "},"̈":{"ha":488,"x_min":-3,"x_max":442,"o":"m 253 1149 l 442 1149 l 442 1018 l 253 1018 l 253 1149 m -3 1149 l 186 1149 l 186 1018 l -3 1018 l -3 1149 z "},"̇":{"ha":157,"x_min":-22,"x_max":186,"o":"m -22 1164 l 186 1164 l 186 1033 l -22 1033 l -22 1164 z "},"̊":{"ha":356,"x_min":7,"x_max":343,"o":"m 211 1026 l 144 1026 q 43 1063 79 1026 q 7 1165 7 1099 q 42 1271 7 1232 q 146 1310 78 1310 l 211 1310 q 308 1273 274 1310 q 343 1165 343 1236 q 308 1063 343 1099 q 211 1026 274 1026 m 210 1200 l 143 1200 q 119 1190 126 1200 q 111 1165 111 1181 q 118 1142 111 1151 q 142 1132 125 1132 l 210 1132 q 231 1141 224 1132 q 239 1165 239 1150 q 232 1191 239 1182 q 210 1200 225 1200 z "},"":{"ha":306,"x_min":35,"x_max":167,"o":"m 35 -49 l 167 -49 l 167 -133 l 74 -224 l 35 -224 l 35 -49 z "},"̧":{"ha":344,"x_min":35,"x_max":260,"o":"m 260 47 l 242 -76 l 35 -76 l 83 47 l 260 47 z "},"̨":{"ha":889,"x_min":357,"x_max":675,"o":"m 675 -65 l 675 -233 l 501 -233 q 391 -185 425 -233 q 371 -74 357 -136 q 399 62 386 -1 q 413 125 413 125 l 556 3 l 539 -65 l 675 -65 z "},"$":{"ha":614,"x_min":21,"x_max":593,"o":"m 21 732 q 104 918 21 839 q 307 997 188 997 q 510 913 426 997 q 593 710 593 829 l 385 710 q 360 770 385 751 q 303 789 336 789 q 250 770 269 789 q 231 728 231 751 q 242 685 231 703 q 289 638 254 667 l 458 493 q 562 375 531 432 q 593 274 593 318 q 510 70 593 154 q 307 -14 426 -14 q 104 70 188 -14 q 21 274 21 154 l 228 274 q 249 208 231 228 q 303 188 268 188 q 355 204 335 188 q 375 254 375 221 q 356 305 375 279 q 283 378 336 331 l 115 529 q 49 617 76 564 q 21 732 21 669 m 176 -14 q 208 58 176 29 q 276 86 240 86 q 346 61 314 86 q 378 -14 378 36 q 345 -87 378 -58 q 276 -115 313 -115 q 209 -87 242 -115 q 176 -14 176 -58 m 174 976 q 206 1048 174 1019 q 274 1076 238 1076 q 343 1051 311 1076 q 375 976 375 1026 q 342 903 375 932 q 274 875 310 875 q 206 903 239 875 q 174 976 174 932 z "},"£":{"ha":536,"x_min":35,"x_max":515,"o":"m 274 183 l 515 183 l 515 0 l 39 0 l 39 157 l 94 185 l 94 388 l 35 388 l 35 585 l 94 585 l 94 715 q 169 907 94 833 q 340 986 244 981 l 464 986 l 464 786 l 342 786 q 294 767 315 786 q 274 715 274 749 l 274 585 l 411 585 l 411 388 l 274 388 l 274 183 z "},"€":{"ha":686,"x_min":21,"x_max":679,"o":"m 679 71 q 588 11 638 32 q 482 -10 539 -10 l 369 -10 q 171 71 254 -10 q 88 264 88 151 l 88 301 l 21 301 l 21 463 l 88 463 l 88 519 l 21 519 l 21 681 l 88 681 l 88 722 q 172 915 88 835 q 369 996 257 996 l 482 996 q 588 976 539 996 q 679 914 638 956 l 533 775 q 509 790 522 783 q 481 796 496 796 l 369 796 q 315 773 338 796 q 292 722 292 750 l 292 681 l 493 681 l 493 519 l 292 519 l 292 463 l 493 463 l 493 301 l 292 301 l 292 264 q 316 212 292 232 q 369 192 340 192 l 481 192 q 509 197 496 192 q 533 213 522 201 l 679 71 z "},"¥":{"ha":636,"x_min":-7,"x_max":643,"o":"m 643 986 l 421 379 l 421 0 l 219 0 l 219 379 l -7 986 l 203 986 l 319 635 l 435 986 l 643 986 m 76 544 l 560 544 l 560 368 l 76 368 l 76 544 m 76 272 l 560 272 l 560 96 l 76 96 l 76 272 z "},"¢":{"ha":640,"x_min":42,"x_max":613,"o":"m 613 388 q 549 215 613 290 q 393 118 486 140 q 357 56 388 81 q 293 32 326 32 q 226 60 258 32 q 193 133 193 89 q 193 139 193 136 q 193 143 193 142 q 84 243 126 178 q 42 388 42 308 l 42 588 q 83 731 42 665 q 192 831 125 796 q 192 834 192 832 q 192 838 192 836 q 224 909 192 881 q 292 938 256 938 q 355 917 325 938 q 392 857 385 897 q 549 761 486 836 q 613 588 613 686 l 406 588 q 383 640 406 619 q 328 661 360 661 q 272 640 296 661 q 249 588 249 619 l 249 388 q 272 334 249 356 q 328 313 296 313 q 383 334 360 313 q 406 388 406 356 l 613 388 z "},"§":{"ha":465,"x_min":35,"x_max":431,"o":"m 229 438 q 265 449 251 438 q 279 483 279 460 q 278 494 279 489 q 278 506 278 500 q 260 531 272 522 q 229 538 247 539 q 194 527 207 538 q 178 497 181 517 l 178 497 q 180 474 178 485 q 188 457 182 464 q 194 451 190 454 q 201 443 197 447 q 214 439 207 440 q 229 438 221 438 m 233 -18 q 92 40 150 -18 q 35 181 35 97 l 178 181 q 192 135 178 149 q 229 121 206 121 q 265 133 251 121 q 279 167 279 144 q 260 224 279 204 q 179 283 242 243 q 144 309 161 294 q 111 339 126 324 q 56 407 76 365 q 35 497 35 449 l 36 497 q 58 582 36 543 q 118 646 81 621 q 58 716 82 678 q 35 797 35 754 l 35 814 q 92 942 35 888 q 233 997 150 997 q 373 939 315 997 q 431 799 431 881 l 286 799 q 269 841 286 828 q 229 853 253 854 q 189 839 203 853 q 175 800 175 825 q 194 766 175 782 q 281 700 214 750 q 400 598 369 636 q 431 497 431 560 q 431 494 431 496 q 431 489 431 492 q 431 485 431 488 q 431 482 431 483 l 431 482 q 404 397 426 436 q 347 333 382 358 q 413 261 396 293 q 431 181 431 229 q 373 40 431 97 q 233 -18 315 -18 z "},"¶":{"ha":746,"x_min":28,"x_max":697,"o":"m 586 0 l 586 986 l 697 986 l 697 0 l 586 0 m 346 986 l 525 986 l 525 0 l 324 0 l 324 317 q 115 417 203 326 q 28 660 28 507 q 117 897 28 807 q 346 986 207 986 z "},"©":{"ha":794,"x_min":35,"x_max":760,"o":"m 394 119 q 138 220 240 119 q 35 488 35 321 q 139 751 35 650 q 397 851 243 851 q 657 751 554 851 q 760 488 760 650 q 656 221 760 322 q 394 119 551 119 m 397 192 q 601 275 518 192 q 683 488 683 358 q 601 699 683 621 q 397 776 518 776 q 195 696 276 776 q 114 488 114 615 q 195 274 114 356 q 397 192 276 192 m 404 306 q 289 353 335 306 q 243 474 243 401 l 243 500 q 289 617 243 569 q 404 665 335 665 q 496 635 456 665 q 550 557 536 604 l 478 532 q 451 576 471 558 q 404 593 432 593 q 347 566 368 593 q 325 501 325 539 l 325 471 q 345 404 325 431 q 404 378 365 378 q 451 393 431 378 q 481 432 471 408 l 553 403 q 494 333 533 361 q 404 306 456 306 z "},"®":{"ha":794,"x_min":35,"x_max":760,"o":"m 394 119 q 138 220 240 119 q 35 488 35 321 q 139 751 35 650 q 397 851 243 851 q 657 751 554 851 q 760 488 760 650 q 656 221 760 322 q 394 119 551 119 m 397 192 q 601 275 518 192 q 683 488 683 358 q 601 699 683 621 q 397 776 518 776 q 195 696 276 776 q 114 488 114 615 q 195 274 114 356 q 397 192 276 192 m 346 504 l 399 504 q 440 514 425 504 q 456 544 456 524 q 440 578 456 569 q 399 588 425 588 l 346 588 l 346 504 m 275 308 l 275 656 l 421 656 q 503 621 474 656 q 532 544 532 586 q 512 481 532 510 q 474 447 492 453 l 539 308 l 469 308 l 407 436 l 346 436 l 346 308 l 275 308 z "},"ª":{"ha":415,"x_min":7,"x_max":408,"o":"m 203 851 l 171 704 l 235 704 l 203 851 m 7 546 l 121 986 l 285 986 l 408 546 l 268 546 l 254 610 l 150 610 l 136 546 l 7 546 m 10 371 l 10 483 l 407 483 l 407 371 l 10 371 z "},"º":{"ha":425,"x_min":14,"x_max":411,"o":"m 24 810 q 76 945 24 892 q 213 999 128 999 q 350 944 296 999 q 404 810 404 890 l 404 729 q 350 596 404 650 q 213 542 296 542 q 76 596 128 542 q 24 729 24 650 l 24 810 m 158 807 l 158 732 q 174 678 158 693 q 214 663 190 663 q 253 678 238 663 q 268 732 268 693 l 268 807 q 253 860 268 844 q 214 876 238 876 q 174 861 190 876 q 158 807 158 846 m 14 371 l 14 483 l 411 483 l 411 371 l 14 371 z "},"†":{"ha":471,"x_min":35,"x_max":436,"o":"m 436 846 l 436 714 l 301 714 l 301 408 l 169 408 l 169 714 l 35 714 l 35 846 l 169 846 l 169 986 l 301 986 l 301 846 l 436 846 z "},"↑":{"ha":749,"x_min":1,"x_max":753,"o":"m 1 613 l 382 969 l 753 613 l 618 469 l 488 589 l 488 18 l 268 18 l 268 589 l 140 469 l 1 613 z "},"↓":{"ha":749,"x_min":10,"x_max":761,"o":"m 761 365 l 381 8 l 10 365 l 144 508 l 275 389 l 275 960 l 494 960 l 494 389 l 622 508 l 761 365 z "},"←":{"ha":756,"x_min":7,"x_max":763,"o":"m 403 82 l 7 501 l 404 925 l 554 783 l 403 624 l 763 624 l 763 381 l 403 381 l 554 219 l 403 82 z "},"→":{"ha":756,"x_min":7,"x_max":763,"o":"m 367 922 l 763 503 l 365 79 l 215 221 l 367 381 l 7 381 l 7 624 l 367 624 l 215 785 l 367 922 z "},"²":{"ha":443,"x_min":21,"x_max":422,"o":"m 418 801 q 374 683 418 751 q 276 540 329 614 l 221 464 l 422 464 l 422 315 l 29 315 l 29 432 l 165 640 q 224 731 194 685 q 254 800 254 778 q 242 838 254 831 q 213 846 231 846 q 183 836 194 846 q 169 801 172 826 l 21 801 q 76 942 21 883 q 213 1000 132 1000 q 356 948 293 1000 q 418 801 418 896 z "},"¤":{"ha":749,"x_min":7,"x_max":742,"o":"m 672 406 q 665 341 672 372 q 643 282 657 310 l 742 182 l 583 24 l 471 136 q 376 125 426 125 q 281 140 325 125 l 165 24 l 7 182 l 114 290 q 95 346 101 317 q 89 406 89 375 l 89 597 q 94 654 89 626 q 110 707 100 682 l 7 811 l 165 969 l 271 864 q 374 883 318 882 q 481 867 431 885 l 583 969 l 742 811 l 647 717 q 666 659 660 689 q 672 597 672 629 l 672 406 m 300 406 q 325 352 300 374 q 382 331 350 331 q 436 352 411 331 q 461 406 461 374 l 461 597 q 437 651 461 631 q 382 672 413 672 q 324 651 349 672 q 300 597 300 631 l 300 406 z "},"¹":{"ha":275,"x_min":4,"x_max":236,"o":"m 4 842 l 4 926 l 125 986 l 236 986 l 236 311 l 85 311 l 85 842 l 4 842 z "},"³":{"ha":461,"x_min":14,"x_max":436,"o":"m 429 788 q 403 708 429 740 q 350 663 378 676 q 410 608 383 644 q 436 510 436 571 q 381 365 436 429 q 233 300 325 300 q 76 360 139 300 q 14 517 14 419 l 165 517 q 187 459 168 475 q 226 443 206 443 q 274 458 257 443 q 290 513 290 472 q 263 577 290 558 q 190 596 236 596 l 190 717 q 258 733 236 717 q 279 788 279 750 q 266 837 279 819 q 225 854 253 854 q 183 840 197 854 q 164 801 168 825 l 18 801 q 78 940 18 879 q 225 1000 139 1000 q 369 942 308 1000 q 429 788 429 885 z "}}}
